<?xml version="1.0" encoding="UTF-8"?><svg xmlns="http://www.w3.org/2000/svg" xmlns:xlink="http://www.w3.org/1999/xlink" stroke-dasharray="none" shape-rendering="auto" font-family="'Dialog'" width="1505" text-rendering="auto" fill-opacity="1" contentScriptType="text/ecmascript" color-interpolation="auto" color-rendering="auto" preserveAspectRatio="xMidYMid meet" font-size="12" viewBox="0 0 1505 1225" fill="black" stroke="black" image-rendering="auto" stroke-miterlimit="10" zoomAndPan="magnify" version="1.0" stroke-linecap="square" stroke-linejoin="miter" contentStyleType="text/css" font-style="normal" height="1225" stroke-width="1" stroke-dashoffset="0" font-weight="normal" stroke-opacity="1">
    <!--Generated by the Batik Graphics2D SVG Generator-->
    <defs id="genericDefs"/>
    <g>
        <defs id="defs1">
            <linearGradient x1="50" x2="50" y1="50" gradientUnits="userSpaceOnUse" y2="1215" xlink:type="simple" xlink:actuate="onLoad" id="linearGradient1" xlink:show="other" spreadMethod="pad">
                <stop stop-opacity="1" stop-color="white" offset="0%"/>
                <stop stop-opacity="1" stop-color="white" offset="100%"/>
            </linearGradient>
            <linearGradient x1="70" x2="70" y1="83" gradientUnits="userSpaceOnUse" y2="1196" xlink:type="simple" xlink:actuate="onLoad" id="linearGradient2" xlink:show="other" spreadMethod="pad">
                <stop stop-opacity="1" stop-color="white" offset="0%"/>
                <stop stop-opacity="1" stop-color="rgb(195,209,213)" offset="100%"/>
            </linearGradient>
            <linearGradient x1="470" x2="470" y1="83" gradientUnits="userSpaceOnUse" y2="1196" xlink:type="simple" xlink:actuate="onLoad" id="linearGradient3" xlink:show="other" spreadMethod="pad">
                <stop stop-opacity="1" stop-color="white" offset="0%"/>
                <stop stop-opacity="1" stop-color="rgb(195,209,213)" offset="100%"/>
            </linearGradient>
            <linearGradient x1="750" x2="750" y1="83" gradientUnits="userSpaceOnUse" y2="1196" xlink:type="simple" xlink:actuate="onLoad" id="linearGradient4" xlink:show="other" spreadMethod="pad">
                <stop stop-opacity="1" stop-color="white" offset="0%"/>
                <stop stop-opacity="1" stop-color="rgb(195,209,213)" offset="100%"/>
            </linearGradient>
            <linearGradient x1="800" x2="800" y1="170" gradientUnits="userSpaceOnUse" y2="1190" xlink:type="simple" xlink:actuate="onLoad" id="linearGradient5" xlink:show="other" spreadMethod="pad">
                <stop stop-opacity="1" stop-color="white" offset="0%"/>
                <stop stop-opacity="1" stop-color="rgb(195,209,213)" offset="100%"/>
            </linearGradient>
            <linearGradient x1="970" x2="970" y1="83" gradientUnits="userSpaceOnUse" y2="1196" xlink:type="simple" xlink:actuate="onLoad" id="linearGradient6" xlink:show="other" spreadMethod="pad">
                <stop stop-opacity="1" stop-color="white" offset="0%"/>
                <stop stop-opacity="1" stop-color="rgb(195,209,213)" offset="100%"/>
            </linearGradient>
            <linearGradient x1="1010" x2="1010" y1="250" gradientUnits="userSpaceOnUse" y2="350" xlink:type="simple" xlink:actuate="onLoad" id="linearGradient7" xlink:show="other" spreadMethod="pad">
                <stop stop-opacity="1" stop-color="white" offset="0%"/>
                <stop stop-opacity="1" stop-color="rgb(195,209,213)" offset="100%"/>
            </linearGradient>
            <linearGradient x1="1110" x2="1110" y1="83" gradientUnits="userSpaceOnUse" y2="1196" xlink:type="simple" xlink:actuate="onLoad" id="linearGradient8" xlink:show="other" spreadMethod="pad">
                <stop stop-opacity="1" stop-color="white" offset="0%"/>
                <stop stop-opacity="1" stop-color="rgb(195,209,213)" offset="100%"/>
            </linearGradient>
            <linearGradient x1="1150" x2="1150" y1="410" gradientUnits="userSpaceOnUse" y2="510" xlink:type="simple" xlink:actuate="onLoad" id="linearGradient9" xlink:show="other" spreadMethod="pad">
                <stop stop-opacity="1" stop-color="white" offset="0%"/>
                <stop stop-opacity="1" stop-color="rgb(195,209,213)" offset="100%"/>
            </linearGradient>
            <linearGradient x1="1250" x2="1250" y1="83" gradientUnits="userSpaceOnUse" y2="1196" xlink:type="simple" xlink:actuate="onLoad" id="linearGradient10" xlink:show="other" spreadMethod="pad">
                <stop stop-opacity="1" stop-color="white" offset="0%"/>
                <stop stop-opacity="1" stop-color="rgb(195,209,213)" offset="100%"/>
            </linearGradient>
            <linearGradient x1="1290" x2="1290" y1="570" gradientUnits="userSpaceOnUse" y2="670" xlink:type="simple" xlink:actuate="onLoad" id="linearGradient11" xlink:show="other" spreadMethod="pad">
                <stop stop-opacity="1" stop-color="white" offset="0%"/>
                <stop stop-opacity="1" stop-color="rgb(195,209,213)" offset="100%"/>
            </linearGradient>
            <linearGradient x1="1390" x2="1390" y1="83" gradientUnits="userSpaceOnUse" y2="1196" xlink:type="simple" xlink:actuate="onLoad" id="linearGradient12" xlink:show="other" spreadMethod="pad">
                <stop stop-opacity="1" stop-color="white" offset="0%"/>
                <stop stop-opacity="1" stop-color="rgb(195,209,213)" offset="100%"/>
            </linearGradient>
            <linearGradient x1="1430" x2="1430" y1="750" gradientUnits="userSpaceOnUse" y2="850" xlink:type="simple" xlink:actuate="onLoad" id="linearGradient13" xlink:show="other" spreadMethod="pad">
                <stop stop-opacity="1" stop-color="white" offset="0%"/>
                <stop stop-opacity="1" stop-color="rgb(195,209,213)" offset="100%"/>
            </linearGradient>
            <linearGradient x1="290" x2="290" y1="83" gradientUnits="userSpaceOnUse" y2="1196" xlink:type="simple" xlink:actuate="onLoad" id="linearGradient14" xlink:show="other" spreadMethod="pad">
                <stop stop-opacity="1" stop-color="white" offset="0%"/>
                <stop stop-opacity="1" stop-color="rgb(195,209,213)" offset="100%"/>
            </linearGradient>
            <linearGradient x1="330" x2="330" y1="930" gradientUnits="userSpaceOnUse" y2="1030" xlink:type="simple" xlink:actuate="onLoad" id="linearGradient15" xlink:show="other" spreadMethod="pad">
                <stop stop-opacity="1" stop-color="white" offset="0%"/>
                <stop stop-opacity="1" stop-color="rgb(195,209,213)" offset="100%"/>
            </linearGradient>
            <clipPath clipPathUnits="userSpaceOnUse" id="clipPath1">
                <path d="M50 50 L50 1214 L1494 1214 L1494 50 Z"/>
            </clipPath>
            <clipPath clipPathUnits="userSpaceOnUse" id="clipPath2">
                <path d="M47 47 L1498 47 L1498 1218 L47 1218 L47 47 Z"/>
            </clipPath>
            <clipPath clipPathUnits="userSpaceOnUse" id="clipPath3">
                <path d="M55 52 L135 52 L135 68 L55 68 L55 52 Z"/>
            </clipPath>
            <clipPath clipPathUnits="userSpaceOnUse" id="clipPath4">
                <path d="M69 82 L171 82 L171 1197 L69 1197 L69 82 Z"/>
            </clipPath>
            <clipPath clipPathUnits="userSpaceOnUse" id="clipPath5">
                <path d="M70 83 L70 1195 L169 1195 L169 83 Z"/>
            </clipPath>
            <clipPath clipPathUnits="userSpaceOnUse" id="clipPath6">
                <path d="M109 85 L133 85 L133 101 L109 101 L109 85 Z"/>
            </clipPath>
            <clipPath clipPathUnits="userSpaceOnUse" id="clipPath7">
                <path d="M469 82 L592 82 L592 1197 L469 1197 L469 82 Z"/>
            </clipPath>
            <clipPath clipPathUnits="userSpaceOnUse" id="clipPath8">
                <path d="M470 83 L470 1195 L590 1195 L590 83 Z"/>
            </clipPath>
            <clipPath clipPathUnits="userSpaceOnUse" id="clipPath9">
                <path d="M485 85 L578 85 L578 101 L485 101 L485 85 Z"/>
            </clipPath>
            <clipPath clipPathUnits="userSpaceOnUse" id="clipPath10">
                <path d="M749 82 L872 82 L872 1197 L749 1197 L749 82 Z"/>
            </clipPath>
            <clipPath clipPathUnits="userSpaceOnUse" id="clipPath11">
                <path d="M750 83 L750 1195 L870 1195 L870 83 Z"/>
            </clipPath>
            <clipPath clipPathUnits="userSpaceOnUse" id="clipPath12">
                <path d="M765 85 L857 85 L857 101 L765 101 L765 85 Z"/>
            </clipPath>
            <clipPath clipPathUnits="userSpaceOnUse" id="clipPath13">
                <path d="M800 170 L800 1189 L819 1189 L819 170 Z"/>
            </clipPath>
            <clipPath clipPathUnits="userSpaceOnUse" id="clipPath14">
                <path d="M799 169 L821 169 L821 1191 L799 1191 L799 169 Z"/>
            </clipPath>
            <clipPath clipPathUnits="userSpaceOnUse" id="clipPath15">
                <path d="M969 82 L1071 82 L1071 1197 L969 1197 L969 82 Z"/>
            </clipPath>
            <clipPath clipPathUnits="userSpaceOnUse" id="clipPath16">
                <path d="M970 83 L970 1195 L1069 1195 L1069 83 Z"/>
            </clipPath>
            <clipPath clipPathUnits="userSpaceOnUse" id="clipPath17">
                <path d="M980 85 L1061 85 L1061 101 L980 101 L980 85 Z"/>
            </clipPath>
            <clipPath clipPathUnits="userSpaceOnUse" id="clipPath18">
                <path d="M1010 250 L1010 349 L1029 349 L1029 250 Z"/>
            </clipPath>
            <clipPath clipPathUnits="userSpaceOnUse" id="clipPath19">
                <path d="M1009 249 L1031 249 L1031 351 L1009 351 L1009 249 Z"/>
            </clipPath>
            <clipPath clipPathUnits="userSpaceOnUse" id="clipPath20">
                <path d="M1109 82 L1211 82 L1211 1197 L1109 1197 L1109 82 Z"/>
            </clipPath>
            <clipPath clipPathUnits="userSpaceOnUse" id="clipPath21">
                <path d="M1110 83 L1110 1195 L1209 1195 L1209 83 Z"/>
            </clipPath>
            <clipPath clipPathUnits="userSpaceOnUse" id="clipPath22">
                <path d="M1124 85 L1197 85 L1197 101 L1124 101 L1124 85 Z"/>
            </clipPath>
            <clipPath clipPathUnits="userSpaceOnUse" id="clipPath23">
                <path d="M1150 410 L1150 509 L1169 509 L1169 410 Z"/>
            </clipPath>
            <clipPath clipPathUnits="userSpaceOnUse" id="clipPath24">
                <path d="M1149 409 L1171 409 L1171 511 L1149 511 L1149 409 Z"/>
            </clipPath>
            <clipPath clipPathUnits="userSpaceOnUse" id="clipPath25">
                <path d="M1249 82 L1351 82 L1351 1197 L1249 1197 L1249 82 Z"/>
            </clipPath>
            <clipPath clipPathUnits="userSpaceOnUse" id="clipPath26">
                <path d="M1250 83 L1250 1195 L1349 1195 L1349 83 Z"/>
            </clipPath>
            <clipPath clipPathUnits="userSpaceOnUse" id="clipPath27">
                <path d="M1266 85 L1335 85 L1335 101 L1266 101 L1266 85 Z"/>
            </clipPath>
            <clipPath clipPathUnits="userSpaceOnUse" id="clipPath28">
                <path d="M1290 570 L1290 669 L1309 669 L1309 570 Z"/>
            </clipPath>
            <clipPath clipPathUnits="userSpaceOnUse" id="clipPath29">
                <path d="M1289 569 L1311 569 L1311 671 L1289 671 L1289 569 Z"/>
            </clipPath>
            <clipPath clipPathUnits="userSpaceOnUse" id="clipPath30">
                <path d="M1389 82 L1491 82 L1491 1197 L1389 1197 L1389 82 Z"/>
            </clipPath>
            <clipPath clipPathUnits="userSpaceOnUse" id="clipPath31">
                <path d="M1390 83 L1390 1195 L1489 1195 L1489 83 Z"/>
            </clipPath>
            <clipPath clipPathUnits="userSpaceOnUse" id="clipPath32">
                <path d="M1406 85 L1476 85 L1476 101 L1406 101 L1406 85 Z"/>
            </clipPath>
            <clipPath clipPathUnits="userSpaceOnUse" id="clipPath33">
                <path d="M1430 750 L1430 849 L1449 849 L1449 750 Z"/>
            </clipPath>
            <clipPath clipPathUnits="userSpaceOnUse" id="clipPath34">
                <path d="M1429 749 L1451 749 L1451 851 L1429 851 L1429 749 Z"/>
            </clipPath>
            <clipPath clipPathUnits="userSpaceOnUse" id="clipPath35">
                <path d="M289 82 L391 82 L391 1197 L289 1197 L289 82 Z"/>
            </clipPath>
            <clipPath clipPathUnits="userSpaceOnUse" id="clipPath36">
                <path d="M290 83 L290 1195 L389 1195 L389 83 Z"/>
            </clipPath>
            <clipPath clipPathUnits="userSpaceOnUse" id="clipPath37">
                <path d="M333 85 L348 85 L348 101 L333 101 L333 85 Z"/>
            </clipPath>
            <clipPath clipPathUnits="userSpaceOnUse" id="clipPath38">
                <path d="M330 930 L330 1029 L349 1029 L349 930 Z"/>
            </clipPath>
            <clipPath clipPathUnits="userSpaceOnUse" id="clipPath39">
                <path d="M329 929 L351 929 L351 1031 L329 1031 L329 929 Z"/>
            </clipPath>
            <clipPath clipPathUnits="userSpaceOnUse" id="clipPath40">
                <path d="M49 49 L1496 49 L1496 1216 L49 1216 L49 49 Z"/>
            </clipPath>
            <clipPath clipPathUnits="userSpaceOnUse" id="clipPath41">
                <path d="M-1 -1 L1506 -1 L1506 1226 L-1 1226 L-1 -1 Z"/>
            </clipPath>
            <clipPath clipPathUnits="userSpaceOnUse" id="clipPath42">
                <path d="M954 675 L1154 675 L1154 691 L954 691 L954 675 Z"/>
            </clipPath>
            <clipPath clipPathUnits="userSpaceOnUse" id="clipPath43">
                <path d="M819 663 L838 663 L838 678 L819 678 L819 663 Z"/>
            </clipPath>
            <clipPath clipPathUnits="userSpaceOnUse" id="clipPath44">
                <path d="M887 515 L1082 515 L1082 531 L887 531 L887 515 Z"/>
            </clipPath>
            <clipPath clipPathUnits="userSpaceOnUse" id="clipPath45">
                <path d="M819 503 L838 503 L838 518 L819 518 L819 503 Z"/>
            </clipPath>
            <clipPath clipPathUnits="userSpaceOnUse" id="clipPath46">
                <path d="M1057 729 L1195 729 L1195 745 L1057 745 L1057 729 Z"/>
            </clipPath>
            <clipPath clipPathUnits="userSpaceOnUse" id="clipPath47">
                <path d="M1413 743 L1432 743 L1432 758 L1413 758 L1413 743 Z"/>
            </clipPath>
            <clipPath clipPathUnits="userSpaceOnUse" id="clipPath48">
                <path d="M534 169 L799 169 L799 185 L534 185 L534 169 Z"/>
            </clipPath>
            <clipPath clipPathUnits="userSpaceOnUse" id="clipPath49">
                <path d="M783 183 L802 183 L802 198 L783 198 L783 183 Z"/>
            </clipPath>
            <clipPath clipPathUnits="userSpaceOnUse" id="clipPath50">
                <path d="M408 895 L461 895 L461 911 L408 911 L408 895 Z"/>
            </clipPath>
            <clipPath clipPathUnits="userSpaceOnUse" id="clipPath51">
                <path d="M339 883 L358 883 L358 898 L339 898 L339 883 Z"/>
            </clipPath>
            <clipPath clipPathUnits="userSpaceOnUse" id="clipPath52">
                <path d="M937 389 L1036 389 L1036 405 L937 405 L937 389 Z"/>
            </clipPath>
            <clipPath clipPathUnits="userSpaceOnUse" id="clipPath53">
                <path d="M1133 403 L1152 403 L1152 418 L1133 418 L1133 403 Z"/>
            </clipPath>
            <clipPath clipPathUnits="userSpaceOnUse" id="clipPath54">
                <path d="M395 972 L490 972 L490 988 L395 988 L395 972 Z"/>
            </clipPath>
            <clipPath clipPathUnits="userSpaceOnUse" id="clipPath55">
                <path d="M329 1023 L348 1023 L348 1038 L329 1038 L329 1023 Z"/>
            </clipPath>
            <clipPath clipPathUnits="userSpaceOnUse" id="clipPath56">
                <path d="M369 129 L484 129 L484 145 L369 145 L369 129 Z"/>
            </clipPath>
            <clipPath clipPathUnits="userSpaceOnUse" id="clipPath57">
                <path d="M513 143 L532 143 L532 158 L513 158 L513 143 Z"/>
            </clipPath>
            <clipPath clipPathUnits="userSpaceOnUse" id="clipPath58">
                <path d="M1042 855 L1207 855 L1207 871 L1042 871 L1042 855 Z"/>
            </clipPath>
            <clipPath clipPathUnits="userSpaceOnUse" id="clipPath59">
                <path d="M819 843 L838 843 L838 858 L819 858 L819 843 Z"/>
            </clipPath>
            <clipPath clipPathUnits="userSpaceOnUse" id="clipPath60">
                <path d="M857 355 L972 355 L972 371 L857 371 L857 355 Z"/>
            </clipPath>
            <clipPath clipPathUnits="userSpaceOnUse" id="clipPath61">
                <path d="M819 343 L838 343 L838 358 L819 358 L819 343 Z"/>
            </clipPath>
            <clipPath clipPathUnits="userSpaceOnUse" id="clipPath62">
                <path d="M977 549 L1135 549 L1135 565 L977 565 L977 549 Z"/>
            </clipPath>
            <clipPath clipPathUnits="userSpaceOnUse" id="clipPath63">
                <path d="M1273 563 L1292 563 L1292 578 L1273 578 L1273 563 Z"/>
            </clipPath>
            <clipPath clipPathUnits="userSpaceOnUse" id="clipPath64">
                <path d="M860 229 L973 229 L973 245 L860 245 L860 229 Z"/>
            </clipPath>
            <clipPath clipPathUnits="userSpaceOnUse" id="clipPath65">
                <path d="M993 243 L1012 243 L1012 258 L993 258 L993 243 Z"/>
            </clipPath>
            <clipPath clipPathUnits="userSpaceOnUse" id="clipPath66">
                <path d="M638 875 L691 875 L691 891 L638 891 L638 875 Z"/>
            </clipPath>
            <clipPath clipPathUnits="userSpaceOnUse" id="clipPath67">
                <path d="M529 863 L548 863 L548 878 L529 878 L529 863 Z"/>
            </clipPath>
            <clipPath clipPathUnits="userSpaceOnUse" id="clipPath68">
                <path d="M174 109 L289 109 L289 125 L174 125 L174 109 Z"/>
            </clipPath>
            <clipPath clipPathUnits="userSpaceOnUse" id="clipPath69">
                <path d="M323 123 L342 123 L342 138 L323 138 L323 123 Z"/>
            </clipPath>
            <clipPath clipPathUnits="userSpaceOnUse" id="clipPath70">
                <path d="M159 1075 L299 1075 L299 1091 L159 1091 L159 1075 Z"/>
            </clipPath>
            <clipPath clipPathUnits="userSpaceOnUse" id="clipPath71">
                <path d="M119 1063 L138 1063 L138 1078 L119 1078 L119 1063 Z"/>
            </clipPath>
        </defs>
        <g font-size="14" fill="url(#linearGradient1)" font-family="'Ubuntu'" stroke-linejoin="round" stroke="url(#linearGradient1)" stroke-width="0" stroke-miterlimit="0">
            <rect x="50" y="50" clip-path="url(#clipPath1)" width="1445" height="1165" stroke="none"/>
        </g>
        <g stroke-width="0.1" font-size="14" font-family="'Ubuntu'" stroke-linecap="butt">
            <line clip-path="url(#clipPath2)" fill="none" x1="148" x2="148" y1="50" y2="62"/>
            <line clip-path="url(#clipPath2)" fill="none" x1="148" x2="148" y1="62" y2="62"/>
            <line clip-path="url(#clipPath2)" fill="none" x1="148" x2="142" y1="62" y2="67"/>
            <line clip-path="url(#clipPath2)" fill="none" x1="142" x2="142" y1="67" y2="67"/>
            <line clip-path="url(#clipPath2)" fill="none" x1="142" x2="50" y1="67" y2="67"/>
            <text x="56" font-size="12" y="65" clip-path="url(#clipPath3)" font-family="'Dialog'" stroke="none" xml:space="preserve">Game clock  </text>
            <rect x="70" y="83" clip-path="url(#clipPath4)" fill="none" width="99" height="17" stroke-width="1.1"/>
            <line clip-path="url(#clipPath4)" fill="none" x1="120" x2="120" y1="100" y2="1195" stroke-dasharray="5,5" stroke-width="1.1"/>
        </g>
        <g stroke-linecap="butt" font-size="14" fill="url(#linearGradient2)" font-family="'Ubuntu'" stroke-dasharray="5,5" stroke="url(#linearGradient2)" stroke-width="1.1">
            <rect x="70" y="83" clip-path="url(#clipPath5)" width="100" opacity="0" height="1113" stroke="none"/>
        </g>
        <g stroke-dasharray="5,5" stroke-width="1.1" stroke-linecap="butt">
            <text xml:space="preserve" x="110" y="98" clip-path="url(#clipPath6)" stroke="none">GUI</text>
            <rect x="470" y="83" clip-path="url(#clipPath7)" fill="none" width="120" stroke-dasharray="none" height="17"/>
            <line clip-path="url(#clipPath7)" fill="none" x1="530" x2="530" y1="100" y2="1195"/>
        </g>
        <g stroke-linecap="butt" font-size="14" fill="url(#linearGradient3)" font-family="'Ubuntu'" stroke-dasharray="5,5" stroke="url(#linearGradient3)" stroke-width="1.1">
            <rect x="470" y="83" clip-path="url(#clipPath8)" width="121" opacity="0" height="1113" stroke="none"/>
        </g>
        <g stroke-dasharray="5,5" stroke-width="1.1" stroke-linecap="butt">
            <text xml:space="preserve" x="486" y="98" clip-path="url(#clipPath9)" stroke="none">Quarkus server</text>
            <rect x="750" y="83" clip-path="url(#clipPath10)" fill="none" width="120" stroke-dasharray="none" height="17"/>
            <line clip-path="url(#clipPath10)" fill="none" x1="810" x2="810" y1="100" y2="1195"/>
        </g>
        <g stroke-linecap="butt" font-size="14" fill="url(#linearGradient4)" font-family="'Ubuntu'" stroke-dasharray="5,5" stroke="url(#linearGradient4)" stroke-width="1.1">
            <rect x="750" y="83" clip-path="url(#clipPath11)" width="121" opacity="0" height="1113" stroke="none"/>
        </g>
        <g stroke-dasharray="5,5" stroke-width="1.1" stroke-linecap="butt">
            <text xml:space="preserve" x="766" y="98" clip-path="url(#clipPath12)" stroke="none">GameResource</text>
        </g>
        <g stroke-linecap="butt" font-size="14" fill="url(#linearGradient5)" font-family="'Ubuntu'" stroke-dasharray="5,5" stroke="url(#linearGradient5)" stroke-width="1.1">
            <rect x="800" y="170" clip-path="url(#clipPath13)" width="20" height="1020" stroke="none"/>
            <rect x="800" y="170" clip-path="url(#clipPath14)" fill="none" width="19" stroke-dasharray="none" rx="0" ry="0" height="1019" stroke="black"/>
            <rect x="970" y="83" clip-path="url(#clipPath15)" fill="none" width="99" stroke-dasharray="none" height="17" stroke="black"/>
            <line clip-path="url(#clipPath15)" fill="none" x1="1020" x2="1020" y1="100" y2="1195" stroke="black"/>
            <rect x="970" y="83" clip-path="url(#clipPath16)" fill="url(#linearGradient6)" width="100" opacity="0" height="1113" stroke="none"/>
        </g>
        <g stroke-dasharray="5,5" stroke-width="1.1" stroke-linecap="butt">
            <text xml:space="preserve" x="981" y="98" clip-path="url(#clipPath17)" stroke="none">ChessService</text>
        </g>
        <g stroke-linecap="butt" font-size="14" fill="url(#linearGradient7)" font-family="'Ubuntu'" stroke-dasharray="5,5" stroke="url(#linearGradient7)" stroke-width="1.1">
            <rect x="1010" y="250" clip-path="url(#clipPath18)" width="20" height="100" stroke="none"/>
            <rect x="1010" y="250" clip-path="url(#clipPath19)" fill="none" width="19" stroke-dasharray="none" rx="0" ry="0" height="99" stroke="black"/>
            <rect x="1110" y="83" clip-path="url(#clipPath20)" fill="none" width="99" stroke-dasharray="none" height="17" stroke="black"/>
            <line clip-path="url(#clipPath20)" fill="none" x1="1160" x2="1160" y1="100" y2="1195" stroke="black"/>
            <rect x="1110" y="83" clip-path="url(#clipPath21)" fill="url(#linearGradient8)" width="100" opacity="0" height="1113" stroke="none"/>
        </g>
        <g stroke-dasharray="5,5" stroke-width="1.1" stroke-linecap="butt">
            <text xml:space="preserve" x="1125" y="98" clip-path="url(#clipPath22)" stroke="none">GameEntity</text>
        </g>
        <g stroke-linecap="butt" font-size="14" fill="url(#linearGradient9)" font-family="'Ubuntu'" stroke-dasharray="5,5" stroke="url(#linearGradient9)" stroke-width="1.1">
            <rect x="1150" y="410" clip-path="url(#clipPath23)" width="20" height="100" stroke="none"/>
            <rect x="1150" y="410" clip-path="url(#clipPath24)" fill="none" width="19" stroke-dasharray="none" rx="0" ry="0" height="99" stroke="black"/>
            <rect x="1250" y="83" clip-path="url(#clipPath25)" fill="none" width="99" stroke-dasharray="none" height="17" stroke="black"/>
            <line clip-path="url(#clipPath25)" fill="none" x1="1300" x2="1300" y1="100" y2="1195" stroke="black"/>
            <rect x="1250" y="83" clip-path="url(#clipPath26)" fill="url(#linearGradient10)" width="100" opacity="0" height="1113" stroke="none"/>
        </g>
        <g stroke-dasharray="5,5" stroke-width="1.1" stroke-linecap="butt">
            <text xml:space="preserve" x="1267" y="98" clip-path="url(#clipPath27)" stroke="none">GameState</text>
        </g>
        <g stroke-linecap="butt" font-size="14" fill="url(#linearGradient11)" font-family="'Ubuntu'" stroke-dasharray="5,5" stroke="url(#linearGradient11)" stroke-width="1.1">
            <rect x="1290" y="570" clip-path="url(#clipPath28)" width="20" height="100" stroke="none"/>
            <rect x="1290" y="570" clip-path="url(#clipPath29)" fill="none" width="19" stroke-dasharray="none" rx="0" ry="0" height="99" stroke="black"/>
            <rect x="1390" y="83" clip-path="url(#clipPath30)" fill="none" width="99" stroke-dasharray="none" height="17" stroke="black"/>
            <line clip-path="url(#clipPath30)" fill="none" x1="1440" x2="1440" y1="100" y2="1195" stroke="black"/>
            <rect x="1390" y="83" clip-path="url(#clipPath31)" fill="url(#linearGradient12)" width="100" opacity="0" height="1113" stroke="none"/>
        </g>
        <g stroke-dasharray="5,5" stroke-width="1.1" stroke-linecap="butt">
            <text xml:space="preserve" x="1407" y="98" clip-path="url(#clipPath32)" stroke="none">PlayerState</text>
        </g>
        <g stroke-linecap="butt" font-size="14" fill="url(#linearGradient13)" font-family="'Ubuntu'" stroke-dasharray="5,5" stroke="url(#linearGradient13)" stroke-width="1.1">
            <rect x="1430" y="750" clip-path="url(#clipPath33)" width="20" height="100" stroke="none"/>
            <rect x="1430" y="750" clip-path="url(#clipPath34)" fill="none" width="19" stroke-dasharray="none" rx="0" ry="0" height="99" stroke="black"/>
            <rect x="290" y="83" clip-path="url(#clipPath35)" fill="none" width="99" stroke-dasharray="none" height="17" stroke="black"/>
            <line clip-path="url(#clipPath35)" fill="none" x1="340" x2="340" y1="100" y2="1195" stroke="black"/>
            <rect x="290" y="83" clip-path="url(#clipPath36)" fill="url(#linearGradient14)" width="100" opacity="0" height="1113" stroke="none"/>
        </g>
        <g stroke-dasharray="5,5" stroke-width="1.1" stroke-linecap="butt">
            <text xml:space="preserve" x="334" y="98" clip-path="url(#clipPath37)" stroke="none">UI</text>
        </g>
        <g stroke-linecap="butt" font-size="14" fill="url(#linearGradient15)" font-family="'Ubuntu'" stroke-dasharray="5,5" stroke="url(#linearGradient15)" stroke-width="1.1">
            <rect x="330" y="930" clip-path="url(#clipPath38)" width="20" height="100" stroke="none"/>
            <rect x="330" y="930" clip-path="url(#clipPath39)" fill="none" width="19" stroke-dasharray="none" rx="0" ry="0" height="99" stroke="black"/>
            <rect x="50" y="50" clip-path="url(#clipPath40)" fill="none" width="1444" stroke-dasharray="none" rx="0" ry="0" height="1164" stroke="black"/>
        </g>
        <g text-rendering="optimizeLegibility" stroke-width="1.1" stroke-dasharray="6.6,3.3" stroke-linecap="butt">
            <line clip-path="url(#clipPath41)" fill="none" x1="1290" x2="820" y1="670" y2="670"/>
            <text xml:space="preserve" x="955" y="688" clip-path="url(#clipPath42)" stroke="none">returns playerState : playerState</text>
            <line clip-path="url(#clipPath43)" fill="none" x1="836" x2="820" y1="664" y2="670" stroke-dasharray="none"/>
            <line clip-path="url(#clipPath43)" fill="none" x1="820" x2="836" y1="670" y2="676" stroke-dasharray="none"/>
            <line clip-path="url(#clipPath41)" fill="none" x1="1150" x2="820" y1="510" y2="510"/>
            <text xml:space="preserve" x="888" y="528" clip-path="url(#clipPath44)" stroke="none">returns gameState : GameState</text>
            <line clip-path="url(#clipPath45)" fill="none" x1="836" x2="820" y1="504" y2="510" stroke-dasharray="none"/>
            <line clip-path="url(#clipPath45)" fill="none" x1="820" x2="836" y1="510" y2="516" stroke-dasharray="none"/>
            <line clip-path="url(#clipPath41)" fill="none" x1="820" x2="1430" y1="750" y2="750" stroke-dasharray="none"/>
            <text x="1058" y="742" clip-path="url(#clipPath46)" stroke-dasharray="none" stroke="none" xml:space="preserve">getRemainingTimeAt()</text>
            <polygon stroke-dasharray="none" clip-path="url(#clipPath47)" points=" 1430 750 1414 756 1414 744" stroke="none"/>
            <polygon fill="none" stroke-dasharray="none" clip-path="url(#clipPath47)" points=" 1430 750 1414 756 1414 744"/>
            <line clip-path="url(#clipPath41)" fill="none" x1="530" x2="800" y1="190" y2="190" stroke-dasharray="none"/>
            <text x="535" y="182" clip-path="url(#clipPath48)" stroke-dasharray="none" stroke="none" xml:space="preserve"> getRemainingTime(gameId :int ,side :Side)</text>
            <line clip-path="url(#clipPath49)" fill="none" x1="784" x2="800" y1="196" y2="190" stroke-dasharray="none"/>
            <line clip-path="url(#clipPath49)" fill="none" x1="800" x2="784" y1="190" y2="184" stroke-dasharray="none"/>
            <line clip-path="url(#clipPath41)" fill="none" x1="530" x2="340" y1="890" y2="890" stroke-dasharray="none"/>
            <text x="409" y="908" clip-path="url(#clipPath50)" stroke-dasharray="none" stroke="none" xml:space="preserve">duration</text>
            <line clip-path="url(#clipPath51)" fill="none" x1="356" x2="340" y1="884" y2="890" stroke-dasharray="none"/>
            <line clip-path="url(#clipPath51)" fill="none" x1="340" x2="356" y1="890" y2="896" stroke-dasharray="none"/>
            <line clip-path="url(#clipPath41)" fill="none" x1="820" x2="1150" y1="410" y2="410" stroke-dasharray="none"/>
            <text x="938" y="402" clip-path="url(#clipPath52)" stroke-dasharray="none" stroke="none" xml:space="preserve">getGameState()</text>
            <polygon stroke-dasharray="none" clip-path="url(#clipPath53)" points=" 1150 410 1134 416 1134 404" stroke="none"/>
            <polygon fill="none" stroke-dasharray="none" clip-path="url(#clipPath53)" points=" 1150 410 1134 416 1134 404"/>
            <line clip-path="url(#clipPath41)" fill="none" x1="330" x2="392" y1="930" y2="930" stroke-dasharray="none"/>
            <line clip-path="url(#clipPath41)" fill="none" x1="392" x2="392" y1="930" y2="1030" stroke-dasharray="none"/>
            <line clip-path="url(#clipPath41)" fill="none" x1="392" x2="330" y1="1030" y2="1030" stroke-dasharray="none"/>
            <text x="396" y="985" clip-path="url(#clipPath54)" stroke-dasharray="none" stroke="none" xml:space="preserve">Parse(duration)</text>
            <polygon stroke-dasharray="none" clip-path="url(#clipPath55)" points=" 330 1030 346 1024 346 1036" stroke="none"/>
            <polygon fill="none" stroke-dasharray="none" clip-path="url(#clipPath55)" points=" 330 1030 346 1024 346 1036"/>
            <line clip-path="url(#clipPath41)" fill="none" x1="340" x2="530" y1="150" y2="150" stroke-dasharray="none"/>
            <text x="370" y="142" clip-path="url(#clipPath56)" stroke-dasharray="none" stroke="none" xml:space="preserve">getRemainingTime</text>
            <line clip-path="url(#clipPath57)" fill="none" x1="514" x2="530" y1="156" y2="150" stroke-dasharray="none"/>
            <line clip-path="url(#clipPath57)" fill="none" x1="530" x2="514" y1="150" y2="144" stroke-dasharray="none"/>
            <line clip-path="url(#clipPath41)" fill="none" x1="1430" x2="820" y1="850" y2="850"/>
            <text xml:space="preserve" x="1043" y="868" clip-path="url(#clipPath58)" stroke="none">returns duration : Duration</text>
            <line clip-path="url(#clipPath59)" fill="none" x1="836" x2="820" y1="844" y2="850" stroke-dasharray="none"/>
            <line clip-path="url(#clipPath59)" fill="none" x1="820" x2="836" y1="850" y2="856" stroke-dasharray="none"/>
            <line clip-path="url(#clipPath41)" fill="none" x1="1010" x2="820" y1="350" y2="350"/>
            <text xml:space="preserve" x="858" y="368" clip-path="url(#clipPath60)" stroke="none">game: GameEntity</text>
            <line clip-path="url(#clipPath61)" fill="none" x1="836" x2="820" y1="344" y2="350" stroke-dasharray="none"/>
            <line clip-path="url(#clipPath61)" fill="none" x1="820" x2="836" y1="350" y2="356" stroke-dasharray="none"/>
            <line clip-path="url(#clipPath41)" fill="none" x1="820" x2="1290" y1="570" y2="570" stroke-dasharray="none"/>
            <text x="978" y="562" clip-path="url(#clipPath62)" stroke-dasharray="none" stroke="none" xml:space="preserve">getPlayerState(side :Side)</text>
            <polygon stroke-dasharray="none" clip-path="url(#clipPath63)" points=" 1290 570 1274 576 1274 564" stroke="none"/>
            <polygon fill="none" stroke-dasharray="none" clip-path="url(#clipPath63)" points=" 1290 570 1274 576 1274 564"/>
            <line clip-path="url(#clipPath41)" fill="none" x1="820" x2="1010" y1="250" y2="250" stroke-dasharray="none"/>
            <text x="861" y="242" clip-path="url(#clipPath64)" stroke-dasharray="none" stroke="none" xml:space="preserve">getGame(gameId)</text>
            <polygon stroke-dasharray="none" clip-path="url(#clipPath65)" points=" 1010 250 994 256 994 244" stroke="none"/>
            <polygon fill="none" stroke-dasharray="none" clip-path="url(#clipPath65)" points=" 1010 250 994 256 994 244"/>
            <line clip-path="url(#clipPath41)" fill="none" x1="800" x2="530" y1="870" y2="870" stroke-dasharray="none"/>
            <text x="639" y="888" clip-path="url(#clipPath66)" stroke-dasharray="none" stroke="none" xml:space="preserve">duration</text>
            <line clip-path="url(#clipPath67)" fill="none" x1="546" x2="530" y1="864" y2="870" stroke-dasharray="none"/>
            <line clip-path="url(#clipPath67)" fill="none" x1="530" x2="546" y1="870" y2="876" stroke-dasharray="none"/>
            <line clip-path="url(#clipPath41)" fill="none" x1="120" x2="340" y1="130" y2="130" stroke-dasharray="none"/>
            <text x="175" y="122" clip-path="url(#clipPath68)" stroke-dasharray="none" stroke="none" xml:space="preserve">getRemainingTime</text>
            <line clip-path="url(#clipPath69)" fill="none" x1="324" x2="340" y1="136" y2="130" stroke-dasharray="none"/>
            <line clip-path="url(#clipPath69)" fill="none" x1="340" x2="324" y1="130" y2="124" stroke-dasharray="none"/>
            <line clip-path="url(#clipPath41)" fill="none" x1="340" x2="120" y1="1070" y2="1070"/>
            <text xml:space="preserve" x="160" y="1088" clip-path="url(#clipPath70)" stroke="none">returns remainingTime</text>
            <line clip-path="url(#clipPath71)" fill="none" x1="136" x2="120" y1="1064" y2="1070" stroke-dasharray="none"/>
            <line clip-path="url(#clipPath71)" fill="none" x1="120" x2="136" y1="1070" y2="1076" stroke-dasharray="none"/>
            <line clip-path="url(#clipPath41)" fill="none" x1="120" x2="340" y1="130" y2="130" stroke-dasharray="none"/>
            <text x="175" y="122" clip-path="url(#clipPath68)" stroke-dasharray="none" stroke="none" xml:space="preserve">getRemainingTime</text>
            <line clip-path="url(#clipPath69)" fill="none" x1="324" x2="340" y1="136" y2="130" stroke-dasharray="none"/>
            <line clip-path="url(#clipPath69)" fill="none" x1="340" x2="324" y1="130" y2="124" stroke-dasharray="none"/>
            <line clip-path="url(#clipPath41)" fill="none" x1="530" x2="800" y1="190" y2="190" stroke-dasharray="none"/>
            <text x="535" y="182" clip-path="url(#clipPath48)" stroke-dasharray="none" stroke="none" xml:space="preserve"> getRemainingTime(gameId :int ,side :Side)</text>
            <line clip-path="url(#clipPath49)" fill="none" x1="784" x2="800" y1="196" y2="190" stroke-dasharray="none"/>
            <line clip-path="url(#clipPath49)" fill="none" x1="800" x2="784" y1="190" y2="184" stroke-dasharray="none"/>
            <line clip-path="url(#clipPath41)" fill="none" x1="820" x2="1010" y1="250" y2="250" stroke-dasharray="none"/>
            <text x="861" y="242" clip-path="url(#clipPath64)" stroke-dasharray="none" stroke="none" xml:space="preserve">getGame(gameId)</text>
            <polygon stroke-dasharray="none" clip-path="url(#clipPath65)" points=" 1010 250 994 256 994 244" stroke="none"/>
            <polygon fill="none" stroke-dasharray="none" clip-path="url(#clipPath65)" points=" 1010 250 994 256 994 244"/>
            <line clip-path="url(#clipPath41)" fill="none" x1="1010" x2="820" y1="350" y2="350"/>
            <text xml:space="preserve" x="858" y="368" clip-path="url(#clipPath60)" stroke="none">game: GameEntity</text>
            <line clip-path="url(#clipPath61)" fill="none" x1="836" x2="820" y1="344" y2="350" stroke-dasharray="none"/>
            <line clip-path="url(#clipPath61)" fill="none" x1="820" x2="836" y1="350" y2="356" stroke-dasharray="none"/>
            <line clip-path="url(#clipPath41)" fill="none" x1="820" x2="1150" y1="410" y2="410" stroke-dasharray="none"/>
            <text x="938" y="402" clip-path="url(#clipPath52)" stroke-dasharray="none" stroke="none" xml:space="preserve">getGameState()</text>
            <polygon stroke-dasharray="none" clip-path="url(#clipPath53)" points=" 1150 410 1134 416 1134 404" stroke="none"/>
            <polygon fill="none" stroke-dasharray="none" clip-path="url(#clipPath53)" points=" 1150 410 1134 416 1134 404"/>
            <line clip-path="url(#clipPath41)" fill="none" x1="1150" x2="820" y1="510" y2="510"/>
            <text xml:space="preserve" x="888" y="528" clip-path="url(#clipPath44)" stroke="none">returns gameState : GameState</text>
            <line clip-path="url(#clipPath45)" fill="none" x1="836" x2="820" y1="504" y2="510" stroke-dasharray="none"/>
            <line clip-path="url(#clipPath45)" fill="none" x1="820" x2="836" y1="510" y2="516" stroke-dasharray="none"/>
            <line clip-path="url(#clipPath41)" fill="none" x1="820" x2="1290" y1="570" y2="570" stroke-dasharray="none"/>
            <text x="978" y="562" clip-path="url(#clipPath62)" stroke-dasharray="none" stroke="none" xml:space="preserve">getPlayerState(side :Side)</text>
            <polygon stroke-dasharray="none" clip-path="url(#clipPath63)" points=" 1290 570 1274 576 1274 564" stroke="none"/>
            <polygon fill="none" stroke-dasharray="none" clip-path="url(#clipPath63)" points=" 1290 570 1274 576 1274 564"/>
            <line clip-path="url(#clipPath41)" fill="none" x1="1290" x2="820" y1="670" y2="670"/>
            <text xml:space="preserve" x="955" y="688" clip-path="url(#clipPath42)" stroke="none">returns playerState : playerState</text>
            <line clip-path="url(#clipPath43)" fill="none" x1="836" x2="820" y1="664" y2="670" stroke-dasharray="none"/>
            <line clip-path="url(#clipPath43)" fill="none" x1="820" x2="836" y1="670" y2="676" stroke-dasharray="none"/>
            <line clip-path="url(#clipPath41)" fill="none" x1="820" x2="1430" y1="750" y2="750" stroke-dasharray="none"/>
            <text x="1058" y="742" clip-path="url(#clipPath46)" stroke-dasharray="none" stroke="none" xml:space="preserve">getRemainingTimeAt()</text>
            <polygon stroke-dasharray="none" clip-path="url(#clipPath47)" points=" 1430 750 1414 756 1414 744" stroke="none"/>
            <polygon fill="none" stroke-dasharray="none" clip-path="url(#clipPath47)" points=" 1430 750 1414 756 1414 744"/>
            <line clip-path="url(#clipPath41)" fill="none" x1="1430" x2="820" y1="850" y2="850"/>
            <text xml:space="preserve" x="1043" y="868" clip-path="url(#clipPath58)" stroke="none">returns duration : Duration</text>
            <line clip-path="url(#clipPath59)" fill="none" x1="836" x2="820" y1="844" y2="850" stroke-dasharray="none"/>
            <line clip-path="url(#clipPath59)" fill="none" x1="820" x2="836" y1="850" y2="856" stroke-dasharray="none"/>
            <line clip-path="url(#clipPath41)" fill="none" x1="340" x2="530" y1="150" y2="150" stroke-dasharray="none"/>
            <text x="370" y="142" clip-path="url(#clipPath56)" stroke-dasharray="none" stroke="none" xml:space="preserve">getRemainingTime</text>
            <line clip-path="url(#clipPath57)" fill="none" x1="514" x2="530" y1="156" y2="150" stroke-dasharray="none"/>
            <line clip-path="url(#clipPath57)" fill="none" x1="530" x2="514" y1="150" y2="144" stroke-dasharray="none"/>
            <line clip-path="url(#clipPath41)" fill="none" x1="530" x2="340" y1="890" y2="890" stroke-dasharray="none"/>
            <text x="409" y="908" clip-path="url(#clipPath50)" stroke-dasharray="none" stroke="none" xml:space="preserve">duration</text>
            <line clip-path="url(#clipPath51)" fill="none" x1="356" x2="340" y1="884" y2="890" stroke-dasharray="none"/>
            <line clip-path="url(#clipPath51)" fill="none" x1="340" x2="356" y1="890" y2="896" stroke-dasharray="none"/>
            <line clip-path="url(#clipPath41)" fill="none" x1="800" x2="530" y1="870" y2="870" stroke-dasharray="none"/>
            <text x="639" y="888" clip-path="url(#clipPath66)" stroke-dasharray="none" stroke="none" xml:space="preserve">duration</text>
            <line clip-path="url(#clipPath67)" fill="none" x1="546" x2="530" y1="864" y2="870" stroke-dasharray="none"/>
            <line clip-path="url(#clipPath67)" fill="none" x1="530" x2="546" y1="870" y2="876" stroke-dasharray="none"/>
            <line clip-path="url(#clipPath41)" fill="none" x1="330" x2="392" y1="930" y2="930" stroke-dasharray="none"/>
            <line clip-path="url(#clipPath41)" fill="none" x1="392" x2="392" y1="930" y2="1030" stroke-dasharray="none"/>
            <line clip-path="url(#clipPath41)" fill="none" x1="392" x2="330" y1="1030" y2="1030" stroke-dasharray="none"/>
            <text x="396" y="985" clip-path="url(#clipPath54)" stroke-dasharray="none" stroke="none" xml:space="preserve">Parse(duration)</text>
            <polygon stroke-dasharray="none" clip-path="url(#clipPath55)" points=" 330 1030 346 1024 346 1036" stroke="none"/>
            <polygon fill="none" stroke-dasharray="none" clip-path="url(#clipPath55)" points=" 330 1030 346 1024 346 1036"/>
            <line clip-path="url(#clipPath41)" fill="none" x1="340" x2="120" y1="1070" y2="1070"/>
            <text xml:space="preserve" x="160" y="1088" clip-path="url(#clipPath70)" stroke="none">returns remainingTime</text>
            <line clip-path="url(#clipPath71)" fill="none" x1="136" x2="120" y1="1064" y2="1070" stroke-dasharray="none"/>
            <line clip-path="url(#clipPath71)" fill="none" x1="120" x2="136" y1="1070" y2="1076" stroke-dasharray="none"/>
        </g>
    </g>
</svg>
