<?xml version="1.0" encoding="UTF-8"?><svg xmlns="http://www.w3.org/2000/svg" xmlns:xlink="http://www.w3.org/1999/xlink" stroke-dasharray="none" shape-rendering="auto" font-family="'Dialog'" width="1505" text-rendering="auto" fill-opacity="1" contentScriptType="text/ecmascript" color-interpolation="auto" color-rendering="auto" preserveAspectRatio="xMidYMid meet" font-size="12" viewBox="0 0 1505 1084" fill="black" stroke="black" image-rendering="auto" stroke-miterlimit="10" zoomAndPan="magnify" version="1.0" stroke-linecap="square" stroke-linejoin="miter" contentStyleType="text/css" font-style="normal" height="1084" stroke-width="1" stroke-dashoffset="0" font-weight="normal" stroke-opacity="1">
    <!--Generated by the Batik Graphics2D SVG Generator-->
    <defs id="genericDefs"/>
    <g>
        <defs id="defs1">
            <linearGradient x1="50" x2="50" y1="50" gradientUnits="userSpaceOnUse" y2="1074" xlink:type="simple" xlink:actuate="onLoad" id="linearGradient1" xlink:show="other" spreadMethod="pad">
                <stop stop-opacity="1" stop-color="white" offset="0%"/>
                <stop stop-opacity="1" stop-color="white" offset="100%"/>
            </linearGradient>
            <linearGradient x1="70" x2="70" y1="83" gradientUnits="userSpaceOnUse" y2="1055" xlink:type="simple" xlink:actuate="onLoad" id="linearGradient2" xlink:show="other" spreadMethod="pad">
                <stop stop-opacity="1" stop-color="white" offset="0%"/>
                <stop stop-opacity="1" stop-color="rgb(195,209,213)" offset="100%"/>
            </linearGradient>
            <linearGradient x1="470" x2="470" y1="83" gradientUnits="userSpaceOnUse" y2="1055" xlink:type="simple" xlink:actuate="onLoad" id="linearGradient3" xlink:show="other" spreadMethod="pad">
                <stop stop-opacity="1" stop-color="white" offset="0%"/>
                <stop stop-opacity="1" stop-color="rgb(195,209,213)" offset="100%"/>
            </linearGradient>
            <linearGradient x1="750" x2="750" y1="83" gradientUnits="userSpaceOnUse" y2="1055" xlink:type="simple" xlink:actuate="onLoad" id="linearGradient4" xlink:show="other" spreadMethod="pad">
                <stop stop-opacity="1" stop-color="white" offset="0%"/>
                <stop stop-opacity="1" stop-color="rgb(195,209,213)" offset="100%"/>
            </linearGradient>
            <linearGradient x1="800" x2="800" y1="170" gradientUnits="userSpaceOnUse" y2="870" xlink:type="simple" xlink:actuate="onLoad" id="linearGradient5" xlink:show="other" spreadMethod="pad">
                <stop stop-opacity="1" stop-color="white" offset="0%"/>
                <stop stop-opacity="1" stop-color="rgb(195,209,213)" offset="100%"/>
            </linearGradient>
            <linearGradient x1="970" x2="970" y1="83" gradientUnits="userSpaceOnUse" y2="1055" xlink:type="simple" xlink:actuate="onLoad" id="linearGradient6" xlink:show="other" spreadMethod="pad">
                <stop stop-opacity="1" stop-color="white" offset="0%"/>
                <stop stop-opacity="1" stop-color="rgb(195,209,213)" offset="100%"/>
            </linearGradient>
            <linearGradient x1="1010" x2="1010" y1="210" gradientUnits="userSpaceOnUse" y2="310" xlink:type="simple" xlink:actuate="onLoad" id="linearGradient7" xlink:show="other" spreadMethod="pad">
                <stop stop-opacity="1" stop-color="white" offset="0%"/>
                <stop stop-opacity="1" stop-color="rgb(195,209,213)" offset="100%"/>
            </linearGradient>
            <linearGradient x1="1110" x2="1110" y1="83" gradientUnits="userSpaceOnUse" y2="1055" xlink:type="simple" xlink:actuate="onLoad" id="linearGradient8" xlink:show="other" spreadMethod="pad">
                <stop stop-opacity="1" stop-color="white" offset="0%"/>
                <stop stop-opacity="1" stop-color="rgb(195,209,213)" offset="100%"/>
            </linearGradient>
            <linearGradient x1="1150" x2="1150" y1="370" gradientUnits="userSpaceOnUse" y2="470" xlink:type="simple" xlink:actuate="onLoad" id="linearGradient9" xlink:show="other" spreadMethod="pad">
                <stop stop-opacity="1" stop-color="white" offset="0%"/>
                <stop stop-opacity="1" stop-color="rgb(195,209,213)" offset="100%"/>
            </linearGradient>
            <linearGradient x1="1250" x2="1250" y1="83" gradientUnits="userSpaceOnUse" y2="1055" xlink:type="simple" xlink:actuate="onLoad" id="linearGradient10" xlink:show="other" spreadMethod="pad">
                <stop stop-opacity="1" stop-color="white" offset="0%"/>
                <stop stop-opacity="1" stop-color="rgb(195,209,213)" offset="100%"/>
            </linearGradient>
            <linearGradient x1="1290" x2="1290" y1="530" gradientUnits="userSpaceOnUse" y2="630" xlink:type="simple" xlink:actuate="onLoad" id="linearGradient11" xlink:show="other" spreadMethod="pad">
                <stop stop-opacity="1" stop-color="white" offset="0%"/>
                <stop stop-opacity="1" stop-color="rgb(195,209,213)" offset="100%"/>
            </linearGradient>
            <linearGradient x1="1390" x2="1390" y1="83" gradientUnits="userSpaceOnUse" y2="1055" xlink:type="simple" xlink:actuate="onLoad" id="linearGradient12" xlink:show="other" spreadMethod="pad">
                <stop stop-opacity="1" stop-color="white" offset="0%"/>
                <stop stop-opacity="1" stop-color="rgb(195,209,213)" offset="100%"/>
            </linearGradient>
            <linearGradient x1="1430" x2="1430" y1="690" gradientUnits="userSpaceOnUse" y2="790" xlink:type="simple" xlink:actuate="onLoad" id="linearGradient13" xlink:show="other" spreadMethod="pad">
                <stop stop-opacity="1" stop-color="white" offset="0%"/>
                <stop stop-opacity="1" stop-color="rgb(195,209,213)" offset="100%"/>
            </linearGradient>
            <linearGradient x1="290" x2="290" y1="83" gradientUnits="userSpaceOnUse" y2="1055" xlink:type="simple" xlink:actuate="onLoad" id="linearGradient14" xlink:show="other" spreadMethod="pad">
                <stop stop-opacity="1" stop-color="white" offset="0%"/>
                <stop stop-opacity="1" stop-color="rgb(195,209,213)" offset="100%"/>
            </linearGradient>
            <linearGradient x1="330" x2="330" y1="830" gradientUnits="userSpaceOnUse" y2="910" xlink:type="simple" xlink:actuate="onLoad" id="linearGradient15" xlink:show="other" spreadMethod="pad">
                <stop stop-opacity="1" stop-color="white" offset="0%"/>
                <stop stop-opacity="1" stop-color="rgb(195,209,213)" offset="100%"/>
            </linearGradient>
            <clipPath clipPathUnits="userSpaceOnUse" id="clipPath1">
                <path d="M50 50 L50 1073 L1494 1073 L1494 50 Z"/>
            </clipPath>
            <clipPath clipPathUnits="userSpaceOnUse" id="clipPath2">
                <path d="M47 47 L1498 47 L1498 1077 L47 1077 L47 47 Z"/>
            </clipPath>
            <clipPath clipPathUnits="userSpaceOnUse" id="clipPath3">
                <path d="M55 52 L135 52 L135 68 L55 68 L55 52 Z"/>
            </clipPath>
            <clipPath clipPathUnits="userSpaceOnUse" id="clipPath4">
                <path d="M69 82 L171 82 L171 1056 L69 1056 L69 82 Z"/>
            </clipPath>
            <clipPath clipPathUnits="userSpaceOnUse" id="clipPath5">
                <path d="M70 83 L70 1054 L169 1054 L169 83 Z"/>
            </clipPath>
            <clipPath clipPathUnits="userSpaceOnUse" id="clipPath6">
                <path d="M109 85 L133 85 L133 101 L109 101 L109 85 Z"/>
            </clipPath>
            <clipPath clipPathUnits="userSpaceOnUse" id="clipPath7">
                <path d="M469 82 L592 82 L592 1056 L469 1056 L469 82 Z"/>
            </clipPath>
            <clipPath clipPathUnits="userSpaceOnUse" id="clipPath8">
                <path d="M470 83 L470 1054 L590 1054 L590 83 Z"/>
            </clipPath>
            <clipPath clipPathUnits="userSpaceOnUse" id="clipPath9">
                <path d="M485 85 L578 85 L578 101 L485 101 L485 85 Z"/>
            </clipPath>
            <clipPath clipPathUnits="userSpaceOnUse" id="clipPath10">
                <path d="M749 82 L872 82 L872 1056 L749 1056 L749 82 Z"/>
            </clipPath>
            <clipPath clipPathUnits="userSpaceOnUse" id="clipPath11">
                <path d="M750 83 L750 1054 L870 1054 L870 83 Z"/>
            </clipPath>
            <clipPath clipPathUnits="userSpaceOnUse" id="clipPath12">
                <path d="M765 85 L857 85 L857 101 L765 101 L765 85 Z"/>
            </clipPath>
            <clipPath clipPathUnits="userSpaceOnUse" id="clipPath13">
                <path d="M800 170 L800 869 L819 869 L819 170 Z"/>
            </clipPath>
            <clipPath clipPathUnits="userSpaceOnUse" id="clipPath14">
                <path d="M799 169 L821 169 L821 871 L799 871 L799 169 Z"/>
            </clipPath>
            <clipPath clipPathUnits="userSpaceOnUse" id="clipPath15">
                <path d="M969 82 L1071 82 L1071 1056 L969 1056 L969 82 Z"/>
            </clipPath>
            <clipPath clipPathUnits="userSpaceOnUse" id="clipPath16">
                <path d="M970 83 L970 1054 L1069 1054 L1069 83 Z"/>
            </clipPath>
            <clipPath clipPathUnits="userSpaceOnUse" id="clipPath17">
                <path d="M980 85 L1061 85 L1061 101 L980 101 L980 85 Z"/>
            </clipPath>
            <clipPath clipPathUnits="userSpaceOnUse" id="clipPath18">
                <path d="M1010 210 L1010 309 L1029 309 L1029 210 Z"/>
            </clipPath>
            <clipPath clipPathUnits="userSpaceOnUse" id="clipPath19">
                <path d="M1009 209 L1031 209 L1031 311 L1009 311 L1009 209 Z"/>
            </clipPath>
            <clipPath clipPathUnits="userSpaceOnUse" id="clipPath20">
                <path d="M1109 82 L1211 82 L1211 1056 L1109 1056 L1109 82 Z"/>
            </clipPath>
            <clipPath clipPathUnits="userSpaceOnUse" id="clipPath21">
                <path d="M1110 83 L1110 1054 L1209 1054 L1209 83 Z"/>
            </clipPath>
            <clipPath clipPathUnits="userSpaceOnUse" id="clipPath22">
                <path d="M1124 85 L1197 85 L1197 101 L1124 101 L1124 85 Z"/>
            </clipPath>
            <clipPath clipPathUnits="userSpaceOnUse" id="clipPath23">
                <path d="M1150 370 L1150 469 L1169 469 L1169 370 Z"/>
            </clipPath>
            <clipPath clipPathUnits="userSpaceOnUse" id="clipPath24">
                <path d="M1149 369 L1171 369 L1171 471 L1149 471 L1149 369 Z"/>
            </clipPath>
            <clipPath clipPathUnits="userSpaceOnUse" id="clipPath25">
                <path d="M1249 82 L1351 82 L1351 1056 L1249 1056 L1249 82 Z"/>
            </clipPath>
            <clipPath clipPathUnits="userSpaceOnUse" id="clipPath26">
                <path d="M1250 83 L1250 1054 L1349 1054 L1349 83 Z"/>
            </clipPath>
            <clipPath clipPathUnits="userSpaceOnUse" id="clipPath27">
                <path d="M1266 85 L1335 85 L1335 101 L1266 101 L1266 85 Z"/>
            </clipPath>
            <clipPath clipPathUnits="userSpaceOnUse" id="clipPath28">
                <path d="M1290 530 L1290 629 L1309 629 L1309 530 Z"/>
            </clipPath>
            <clipPath clipPathUnits="userSpaceOnUse" id="clipPath29">
                <path d="M1289 529 L1311 529 L1311 631 L1289 631 L1289 529 Z"/>
            </clipPath>
            <clipPath clipPathUnits="userSpaceOnUse" id="clipPath30">
                <path d="M1389 82 L1491 82 L1491 1056 L1389 1056 L1389 82 Z"/>
            </clipPath>
            <clipPath clipPathUnits="userSpaceOnUse" id="clipPath31">
                <path d="M1390 83 L1390 1054 L1489 1054 L1489 83 Z"/>
            </clipPath>
            <clipPath clipPathUnits="userSpaceOnUse" id="clipPath32">
                <path d="M1406 85 L1476 85 L1476 101 L1406 101 L1406 85 Z"/>
            </clipPath>
            <clipPath clipPathUnits="userSpaceOnUse" id="clipPath33">
                <path d="M1430 690 L1430 789 L1449 789 L1449 690 Z"/>
            </clipPath>
            <clipPath clipPathUnits="userSpaceOnUse" id="clipPath34">
                <path d="M1429 689 L1451 689 L1451 791 L1429 791 L1429 689 Z"/>
            </clipPath>
            <clipPath clipPathUnits="userSpaceOnUse" id="clipPath35">
                <path d="M289 82 L391 82 L391 1056 L289 1056 L289 82 Z"/>
            </clipPath>
            <clipPath clipPathUnits="userSpaceOnUse" id="clipPath36">
                <path d="M290 83 L290 1054 L389 1054 L389 83 Z"/>
            </clipPath>
            <clipPath clipPathUnits="userSpaceOnUse" id="clipPath37">
                <path d="M333 85 L348 85 L348 101 L333 101 L333 85 Z"/>
            </clipPath>
            <clipPath clipPathUnits="userSpaceOnUse" id="clipPath38">
                <path d="M330 830 L330 909 L349 909 L349 830 Z"/>
            </clipPath>
            <clipPath clipPathUnits="userSpaceOnUse" id="clipPath39">
                <path d="M329 829 L351 829 L351 911 L329 911 L329 829 Z"/>
            </clipPath>
            <clipPath clipPathUnits="userSpaceOnUse" id="clipPath40">
                <path d="M49 49 L1496 49 L1496 1075 L49 1075 L49 49 Z"/>
            </clipPath>
            <clipPath clipPathUnits="userSpaceOnUse" id="clipPath41">
                <path d="M-1 -1 L1506 -1 L1506 1085 L-1 1085 L-1 -1 Z"/>
            </clipPath>
            <clipPath clipPathUnits="userSpaceOnUse" id="clipPath42">
                <path d="M395 862 L490 862 L490 878 L395 878 L395 862 Z"/>
            </clipPath>
            <clipPath clipPathUnits="userSpaceOnUse" id="clipPath43">
                <path d="M329 903 L348 903 L348 918 L329 918 L329 903 Z"/>
            </clipPath>
            <clipPath clipPathUnits="userSpaceOnUse" id="clipPath44">
                <path d="M954 635 L1154 635 L1154 651 L954 651 L954 635 Z"/>
            </clipPath>
            <clipPath clipPathUnits="userSpaceOnUse" id="clipPath45">
                <path d="M819 623 L838 623 L838 638 L819 638 L819 623 Z"/>
            </clipPath>
            <clipPath clipPathUnits="userSpaceOnUse" id="clipPath46">
                <path d="M887 475 L1082 475 L1082 491 L887 491 L887 475 Z"/>
            </clipPath>
            <clipPath clipPathUnits="userSpaceOnUse" id="clipPath47">
                <path d="M819 463 L838 463 L838 478 L819 478 L819 463 Z"/>
            </clipPath>
            <clipPath clipPathUnits="userSpaceOnUse" id="clipPath48">
                <path d="M534 169 L799 169 L799 185 L534 185 L534 169 Z"/>
            </clipPath>
            <clipPath clipPathUnits="userSpaceOnUse" id="clipPath49">
                <path d="M783 183 L802 183 L802 198 L783 198 L783 183 Z"/>
            </clipPath>
            <clipPath clipPathUnits="userSpaceOnUse" id="clipPath50">
                <path d="M159 935 L299 935 L299 951 L159 951 L159 935 Z"/>
            </clipPath>
            <clipPath clipPathUnits="userSpaceOnUse" id="clipPath51">
                <path d="M119 923 L138 923 L138 938 L119 938 L119 923 Z"/>
            </clipPath>
            <clipPath clipPathUnits="userSpaceOnUse" id="clipPath52">
                <path d="M174 109 L289 109 L289 125 L174 125 L174 109 Z"/>
            </clipPath>
            <clipPath clipPathUnits="userSpaceOnUse" id="clipPath53">
                <path d="M323 123 L342 123 L342 138 L323 138 L323 123 Z"/>
            </clipPath>
            <clipPath clipPathUnits="userSpaceOnUse" id="clipPath54">
                <path d="M942 509 L1170 509 L1170 525 L942 525 L942 509 Z"/>
            </clipPath>
            <clipPath clipPathUnits="userSpaceOnUse" id="clipPath55">
                <path d="M1273 523 L1292 523 L1292 538 L1273 538 L1273 523 Z"/>
            </clipPath>
            <clipPath clipPathUnits="userSpaceOnUse" id="clipPath56">
                <path d="M819 189 L1014 189 L1014 205 L819 205 L819 189 Z"/>
            </clipPath>
            <clipPath clipPathUnits="userSpaceOnUse" id="clipPath57">
                <path d="M993 203 L1012 203 L1012 218 L993 218 L993 203 Z"/>
            </clipPath>
            <clipPath clipPathUnits="userSpaceOnUse" id="clipPath58">
                <path d="M1021 669 L1232 669 L1232 685 L1021 685 L1021 669 Z"/>
            </clipPath>
            <clipPath clipPathUnits="userSpaceOnUse" id="clipPath59">
                <path d="M1413 683 L1432 683 L1432 698 L1413 698 L1413 683 Z"/>
            </clipPath>
            <clipPath clipPathUnits="userSpaceOnUse" id="clipPath60">
                <path d="M1042 795 L1207 795 L1207 811 L1042 811 L1042 795 Z"/>
            </clipPath>
            <clipPath clipPathUnits="userSpaceOnUse" id="clipPath61">
                <path d="M819 783 L838 783 L838 798 L819 798 L819 783 Z"/>
            </clipPath>
            <clipPath clipPathUnits="userSpaceOnUse" id="clipPath62">
                <path d="M638 815 L691 815 L691 831 L638 831 L638 815 Z"/>
            </clipPath>
            <clipPath clipPathUnits="userSpaceOnUse" id="clipPath63">
                <path d="M529 803 L548 803 L548 818 L529 818 L529 803 Z"/>
            </clipPath>
            <clipPath clipPathUnits="userSpaceOnUse" id="clipPath64">
                <path d="M918 349 L1055 349 L1055 365 L918 365 L918 349 Z"/>
            </clipPath>
            <clipPath clipPathUnits="userSpaceOnUse" id="clipPath65">
                <path d="M1133 363 L1152 363 L1152 378 L1133 378 L1133 363 Z"/>
            </clipPath>
            <clipPath clipPathUnits="userSpaceOnUse" id="clipPath66">
                <path d="M857 315 L972 315 L972 331 L857 331 L857 315 Z"/>
            </clipPath>
            <clipPath clipPathUnits="userSpaceOnUse" id="clipPath67">
                <path d="M819 303 L838 303 L838 318 L819 318 L819 303 Z"/>
            </clipPath>
            <clipPath clipPathUnits="userSpaceOnUse" id="clipPath68">
                <path d="M379 129 L494 129 L494 145 L379 145 L379 129 Z"/>
            </clipPath>
            <clipPath clipPathUnits="userSpaceOnUse" id="clipPath69">
                <path d="M513 143 L532 143 L532 158 L513 158 L513 143 Z"/>
            </clipPath>
        </defs>
        <g font-size="14" fill="url(#linearGradient1)" font-family="'Ubuntu'" stroke-linejoin="round" stroke="url(#linearGradient1)" stroke-width="0" stroke-miterlimit="0">
            <rect x="50" y="50" clip-path="url(#clipPath1)" width="1445" height="1024" stroke="none"/>
        </g>
        <g stroke-width="0.1" font-size="14" font-family="'Ubuntu'" stroke-linecap="butt">
            <line clip-path="url(#clipPath2)" fill="none" x1="148" x2="148" y1="50" y2="62"/>
            <line clip-path="url(#clipPath2)" fill="none" x1="148" x2="148" y1="62" y2="62"/>
            <line clip-path="url(#clipPath2)" fill="none" x1="148" x2="142" y1="62" y2="67"/>
            <line clip-path="url(#clipPath2)" fill="none" x1="142" x2="142" y1="67" y2="67"/>
            <line clip-path="url(#clipPath2)" fill="none" x1="142" x2="50" y1="67" y2="67"/>
            <text x="56" font-size="12" y="65" clip-path="url(#clipPath3)" font-family="'Dialog'" stroke="none" xml:space="preserve">Game clock  </text>
            <rect x="70" y="83" clip-path="url(#clipPath4)" fill="none" width="99" height="17" stroke-width="1.1"/>
            <line clip-path="url(#clipPath4)" fill="none" x1="120" x2="120" y1="100" y2="1054" stroke-dasharray="5,5" stroke-width="1.1"/>
        </g>
        <g stroke-linecap="butt" font-size="14" fill="url(#linearGradient2)" font-family="'Ubuntu'" stroke-dasharray="5,5" stroke="url(#linearGradient2)" stroke-width="1.1">
            <rect x="70" y="83" clip-path="url(#clipPath5)" width="100" opacity="0" height="972" stroke="none"/>
        </g>
        <g stroke-dasharray="5,5" stroke-width="1.1" stroke-linecap="butt">
            <text xml:space="preserve" x="110" y="98" clip-path="url(#clipPath6)" stroke="none">GUI</text>
            <rect x="470" y="83" clip-path="url(#clipPath7)" fill="none" width="120" stroke-dasharray="none" height="17"/>
            <line clip-path="url(#clipPath7)" fill="none" x1="530" x2="530" y1="100" y2="1054"/>
        </g>
        <g stroke-linecap="butt" font-size="14" fill="url(#linearGradient3)" font-family="'Ubuntu'" stroke-dasharray="5,5" stroke="url(#linearGradient3)" stroke-width="1.1">
            <rect x="470" y="83" clip-path="url(#clipPath8)" width="121" opacity="0" height="972" stroke="none"/>
        </g>
        <g stroke-dasharray="5,5" stroke-width="1.1" stroke-linecap="butt">
            <text xml:space="preserve" x="486" y="98" clip-path="url(#clipPath9)" stroke="none">Quarkus server</text>
            <rect x="750" y="83" clip-path="url(#clipPath10)" fill="none" width="120" stroke-dasharray="none" height="17"/>
            <line clip-path="url(#clipPath10)" fill="none" x1="810" x2="810" y1="100" y2="1054"/>
        </g>
        <g stroke-linecap="butt" font-size="14" fill="url(#linearGradient4)" font-family="'Ubuntu'" stroke-dasharray="5,5" stroke="url(#linearGradient4)" stroke-width="1.1">
            <rect x="750" y="83" clip-path="url(#clipPath11)" width="121" opacity="0" height="972" stroke="none"/>
        </g>
        <g stroke-dasharray="5,5" stroke-width="1.1" stroke-linecap="butt">
            <text xml:space="preserve" x="766" y="98" clip-path="url(#clipPath12)" stroke="none">GameResource</text>
        </g>
        <g stroke-linecap="butt" font-size="14" fill="url(#linearGradient5)" font-family="'Ubuntu'" stroke-dasharray="5,5" stroke="url(#linearGradient5)" stroke-width="1.1">
            <rect x="800" y="170" clip-path="url(#clipPath13)" width="20" height="700" stroke="none"/>
            <rect x="800" y="170" clip-path="url(#clipPath14)" fill="none" width="19" stroke-dasharray="none" rx="0" ry="0" height="699" stroke="black"/>
            <rect x="970" y="83" clip-path="url(#clipPath15)" fill="none" width="99" stroke-dasharray="none" height="17" stroke="black"/>
            <line clip-path="url(#clipPath15)" fill="none" x1="1020" x2="1020" y1="100" y2="1054" stroke="black"/>
            <rect x="970" y="83" clip-path="url(#clipPath16)" fill="url(#linearGradient6)" width="100" opacity="0" height="972" stroke="none"/>
        </g>
        <g stroke-dasharray="5,5" stroke-width="1.1" stroke-linecap="butt">
            <text xml:space="preserve" x="981" y="98" clip-path="url(#clipPath17)" stroke="none">ChessService</text>
        </g>
        <g stroke-linecap="butt" font-size="14" fill="url(#linearGradient7)" font-family="'Ubuntu'" stroke-dasharray="5,5" stroke="url(#linearGradient7)" stroke-width="1.1">
            <rect x="1010" y="210" clip-path="url(#clipPath18)" width="20" height="100" stroke="none"/>
            <rect x="1010" y="210" clip-path="url(#clipPath19)" fill="none" width="19" stroke-dasharray="none" rx="0" ry="0" height="99" stroke="black"/>
            <rect x="1110" y="83" clip-path="url(#clipPath20)" fill="none" width="99" stroke-dasharray="none" height="17" stroke="black"/>
            <line clip-path="url(#clipPath20)" fill="none" x1="1160" x2="1160" y1="100" y2="1054" stroke="black"/>
            <rect x="1110" y="83" clip-path="url(#clipPath21)" fill="url(#linearGradient8)" width="100" opacity="0" height="972" stroke="none"/>
        </g>
        <g stroke-dasharray="5,5" stroke-width="1.1" stroke-linecap="butt">
            <text xml:space="preserve" x="1125" y="98" clip-path="url(#clipPath22)" stroke="none">GameEntity</text>
        </g>
        <g stroke-linecap="butt" font-size="14" fill="url(#linearGradient9)" font-family="'Ubuntu'" stroke-dasharray="5,5" stroke="url(#linearGradient9)" stroke-width="1.1">
            <rect x="1150" y="370" clip-path="url(#clipPath23)" width="20" height="100" stroke="none"/>
            <rect x="1150" y="370" clip-path="url(#clipPath24)" fill="none" width="19" stroke-dasharray="none" rx="0" ry="0" height="99" stroke="black"/>
            <rect x="1250" y="83" clip-path="url(#clipPath25)" fill="none" width="99" stroke-dasharray="none" height="17" stroke="black"/>
            <line clip-path="url(#clipPath25)" fill="none" x1="1300" x2="1300" y1="100" y2="1054" stroke="black"/>
            <rect x="1250" y="83" clip-path="url(#clipPath26)" fill="url(#linearGradient10)" width="100" opacity="0" height="972" stroke="none"/>
        </g>
        <g stroke-dasharray="5,5" stroke-width="1.1" stroke-linecap="butt">
            <text xml:space="preserve" x="1267" y="98" clip-path="url(#clipPath27)" stroke="none">GameState</text>
        </g>
        <g stroke-linecap="butt" font-size="14" fill="url(#linearGradient11)" font-family="'Ubuntu'" stroke-dasharray="5,5" stroke="url(#linearGradient11)" stroke-width="1.1">
            <rect x="1290" y="530" clip-path="url(#clipPath28)" width="20" height="100" stroke="none"/>
            <rect x="1290" y="530" clip-path="url(#clipPath29)" fill="none" width="19" stroke-dasharray="none" rx="0" ry="0" height="99" stroke="black"/>
            <rect x="1390" y="83" clip-path="url(#clipPath30)" fill="none" width="99" stroke-dasharray="none" height="17" stroke="black"/>
            <line clip-path="url(#clipPath30)" fill="none" x1="1440" x2="1440" y1="100" y2="1054" stroke="black"/>
            <rect x="1390" y="83" clip-path="url(#clipPath31)" fill="url(#linearGradient12)" width="100" opacity="0" height="972" stroke="none"/>
        </g>
        <g stroke-dasharray="5,5" stroke-width="1.1" stroke-linecap="butt">
            <text xml:space="preserve" x="1407" y="98" clip-path="url(#clipPath32)" stroke="none">PlayerState</text>
        </g>
        <g stroke-linecap="butt" font-size="14" fill="url(#linearGradient13)" font-family="'Ubuntu'" stroke-dasharray="5,5" stroke="url(#linearGradient13)" stroke-width="1.1">
            <rect x="1430" y="690" clip-path="url(#clipPath33)" width="20" height="100" stroke="none"/>
            <rect x="1430" y="690" clip-path="url(#clipPath34)" fill="none" width="19" stroke-dasharray="none" rx="0" ry="0" height="99" stroke="black"/>
            <rect x="290" y="83" clip-path="url(#clipPath35)" fill="none" width="99" stroke-dasharray="none" height="17" stroke="black"/>
            <line clip-path="url(#clipPath35)" fill="none" x1="340" x2="340" y1="100" y2="1054" stroke="black"/>
            <rect x="290" y="83" clip-path="url(#clipPath36)" fill="url(#linearGradient14)" width="100" opacity="0" height="972" stroke="none"/>
        </g>
        <g stroke-dasharray="5,5" stroke-width="1.1" stroke-linecap="butt">
            <text xml:space="preserve" x="334" y="98" clip-path="url(#clipPath37)" stroke="none">UI</text>
        </g>
        <g stroke-linecap="butt" font-size="14" fill="url(#linearGradient15)" font-family="'Ubuntu'" stroke-dasharray="5,5" stroke="url(#linearGradient15)" stroke-width="1.1">
            <rect x="330" y="830" clip-path="url(#clipPath38)" width="20" height="80" stroke="none"/>
            <rect x="330" y="830" clip-path="url(#clipPath39)" fill="none" width="19" stroke-dasharray="none" rx="0" ry="0" height="79" stroke="black"/>
            <rect x="50" y="50" clip-path="url(#clipPath40)" fill="none" width="1444" stroke-dasharray="none" rx="0" ry="0" height="1023" stroke="black"/>
        </g>
        <g text-rendering="optimizeLegibility" stroke-width="1.1" stroke-linecap="butt">
            <line clip-path="url(#clipPath41)" fill="none" x1="330" x2="392" y1="830" y2="830"/>
            <line clip-path="url(#clipPath41)" fill="none" x1="392" x2="392" y1="830" y2="910"/>
            <line clip-path="url(#clipPath41)" fill="none" x1="392" x2="330" y1="910" y2="910"/>
            <text xml:space="preserve" x="396" y="875" clip-path="url(#clipPath42)" stroke="none">Parse(duration)</text>
            <polygon clip-path="url(#clipPath43)" points=" 330 910 346 904 346 916" stroke="none"/>
            <polygon fill="none" clip-path="url(#clipPath43)" points=" 330 910 346 904 346 916"/>
            <line clip-path="url(#clipPath41)" fill="none" x1="1290" x2="820" y1="630" y2="630" stroke-dasharray="6.6,3.3"/>
            <text x="955" y="648" clip-path="url(#clipPath44)" stroke-dasharray="6.6,3.3" stroke="none" xml:space="preserve">returns playerState : playerState</text>
            <line clip-path="url(#clipPath45)" fill="none" x1="836" x2="820" y1="624" y2="630"/>
            <line clip-path="url(#clipPath45)" fill="none" x1="820" x2="836" y1="630" y2="636"/>
            <line clip-path="url(#clipPath41)" fill="none" x1="1150" x2="820" y1="470" y2="470" stroke-dasharray="6.6,3.3"/>
            <text x="888" y="488" clip-path="url(#clipPath46)" stroke-dasharray="6.6,3.3" stroke="none" xml:space="preserve">returns gameState : GameState</text>
            <line clip-path="url(#clipPath47)" fill="none" x1="836" x2="820" y1="464" y2="470"/>
            <line clip-path="url(#clipPath47)" fill="none" x1="820" x2="836" y1="470" y2="476"/>
            <line clip-path="url(#clipPath41)" fill="none" x1="530" x2="800" y1="190" y2="190"/>
            <text xml:space="preserve" x="535" y="182" clip-path="url(#clipPath48)" stroke="none"> getRemainingTime(gameId :int ,side :Side)</text>
            <line clip-path="url(#clipPath49)" fill="none" x1="784" x2="800" y1="196" y2="190"/>
            <line clip-path="url(#clipPath49)" fill="none" x1="800" x2="784" y1="190" y2="184"/>
            <line clip-path="url(#clipPath41)" fill="none" x1="340" x2="120" y1="930" y2="930" stroke-dasharray="6.6,3.3"/>
            <text x="160" y="948" clip-path="url(#clipPath50)" stroke-dasharray="6.6,3.3" stroke="none" xml:space="preserve">returns remainingTime</text>
            <line clip-path="url(#clipPath51)" fill="none" x1="136" x2="120" y1="924" y2="930"/>
            <line clip-path="url(#clipPath51)" fill="none" x1="120" x2="136" y1="930" y2="936"/>
            <line clip-path="url(#clipPath41)" fill="none" x1="120" x2="340" y1="130" y2="130"/>
            <text xml:space="preserve" x="175" y="122" clip-path="url(#clipPath52)" stroke="none">getRemainingTime</text>
            <line clip-path="url(#clipPath53)" fill="none" x1="324" x2="340" y1="136" y2="130"/>
            <line clip-path="url(#clipPath53)" fill="none" x1="340" x2="324" y1="130" y2="124"/>
            <line clip-path="url(#clipPath41)" fill="none" x1="820" x2="1290" y1="530" y2="530"/>
            <text xml:space="preserve" x="943" y="522" clip-path="url(#clipPath54)" stroke="none">gameState.getPlayerState(side :Side)</text>
            <polygon clip-path="url(#clipPath55)" points=" 1290 530 1274 536 1274 524" stroke="none"/>
            <polygon fill="none" clip-path="url(#clipPath55)" points=" 1290 530 1274 536 1274 524"/>
            <line clip-path="url(#clipPath41)" fill="none" x1="820" x2="1010" y1="210" y2="210"/>
            <text xml:space="preserve" x="820" y="202" clip-path="url(#clipPath56)" stroke="none">chessService.getGame(gameId)</text>
            <polygon clip-path="url(#clipPath57)" points=" 1010 210 994 216 994 204" stroke="none"/>
            <polygon fill="none" clip-path="url(#clipPath57)" points=" 1010 210 994 216 994 204"/>
            <line clip-path="url(#clipPath41)" fill="none" x1="820" x2="1430" y1="690" y2="690"/>
            <text xml:space="preserve" x="1022" y="682" clip-path="url(#clipPath58)" stroke="none">playerState.getRemainingTimeAt()</text>
            <polygon clip-path="url(#clipPath59)" points=" 1430 690 1414 696 1414 684" stroke="none"/>
            <polygon fill="none" clip-path="url(#clipPath59)" points=" 1430 690 1414 696 1414 684"/>
            <line clip-path="url(#clipPath41)" fill="none" x1="1430" x2="820" y1="790" y2="790" stroke-dasharray="6.6,3.3"/>
            <text x="1043" y="808" clip-path="url(#clipPath60)" stroke-dasharray="6.6,3.3" stroke="none" xml:space="preserve">returns duration : Duration</text>
            <line clip-path="url(#clipPath61)" fill="none" x1="836" x2="820" y1="784" y2="790"/>
            <line clip-path="url(#clipPath61)" fill="none" x1="820" x2="836" y1="790" y2="796"/>
            <line clip-path="url(#clipPath41)" fill="none" x1="800" x2="530" y1="810" y2="810" stroke-dasharray="6.6,3.3"/>
            <text x="639" y="828" clip-path="url(#clipPath62)" stroke-dasharray="6.6,3.3" stroke="none" xml:space="preserve">duration</text>
            <line clip-path="url(#clipPath63)" fill="none" x1="546" x2="530" y1="804" y2="810"/>
            <line clip-path="url(#clipPath63)" fill="none" x1="530" x2="546" y1="810" y2="816"/>
            <line clip-path="url(#clipPath41)" fill="none" x1="820" x2="1150" y1="370" y2="370"/>
            <text xml:space="preserve" x="919" y="362" clip-path="url(#clipPath64)" stroke="none">game.getGameState()</text>
            <polygon clip-path="url(#clipPath65)" points=" 1150 370 1134 376 1134 364" stroke="none"/>
            <polygon fill="none" clip-path="url(#clipPath65)" points=" 1150 370 1134 376 1134 364"/>
            <line clip-path="url(#clipPath41)" fill="none" x1="1010" x2="820" y1="310" y2="310" stroke-dasharray="6.6,3.3"/>
            <text x="858" y="328" clip-path="url(#clipPath66)" stroke-dasharray="6.6,3.3" stroke="none" xml:space="preserve">game: GameEntity</text>
            <line clip-path="url(#clipPath67)" fill="none" x1="836" x2="820" y1="304" y2="310"/>
            <line clip-path="url(#clipPath67)" fill="none" x1="820" x2="836" y1="310" y2="316"/>
            <line clip-path="url(#clipPath41)" fill="none" x1="340" x2="530" y1="150" y2="150"/>
            <text xml:space="preserve" x="380" y="142" clip-path="url(#clipPath68)" stroke="none">getRemainingTime</text>
            <line clip-path="url(#clipPath69)" fill="none" x1="514" x2="530" y1="156" y2="150"/>
            <line clip-path="url(#clipPath69)" fill="none" x1="530" x2="514" y1="150" y2="144"/>
            <line clip-path="url(#clipPath41)" fill="none" x1="120" x2="340" y1="130" y2="130"/>
            <text xml:space="preserve" x="175" y="122" clip-path="url(#clipPath52)" stroke="none">getRemainingTime</text>
            <line clip-path="url(#clipPath53)" fill="none" x1="324" x2="340" y1="136" y2="130"/>
            <line clip-path="url(#clipPath53)" fill="none" x1="340" x2="324" y1="130" y2="124"/>
            <line clip-path="url(#clipPath41)" fill="none" x1="530" x2="800" y1="190" y2="190"/>
            <text xml:space="preserve" x="535" y="182" clip-path="url(#clipPath48)" stroke="none"> getRemainingTime(gameId :int ,side :Side)</text>
            <line clip-path="url(#clipPath49)" fill="none" x1="784" x2="800" y1="196" y2="190"/>
            <line clip-path="url(#clipPath49)" fill="none" x1="800" x2="784" y1="190" y2="184"/>
            <line clip-path="url(#clipPath41)" fill="none" x1="820" x2="1010" y1="210" y2="210"/>
            <text xml:space="preserve" x="820" y="202" clip-path="url(#clipPath56)" stroke="none">chessService.getGame(gameId)</text>
            <polygon clip-path="url(#clipPath57)" points=" 1010 210 994 216 994 204" stroke="none"/>
            <polygon fill="none" clip-path="url(#clipPath57)" points=" 1010 210 994 216 994 204"/>
            <line clip-path="url(#clipPath41)" fill="none" x1="1010" x2="820" y1="310" y2="310" stroke-dasharray="6.6,3.3"/>
            <text x="858" y="328" clip-path="url(#clipPath66)" stroke-dasharray="6.6,3.3" stroke="none" xml:space="preserve">game: GameEntity</text>
            <line clip-path="url(#clipPath67)" fill="none" x1="836" x2="820" y1="304" y2="310"/>
            <line clip-path="url(#clipPath67)" fill="none" x1="820" x2="836" y1="310" y2="316"/>
            <line clip-path="url(#clipPath41)" fill="none" x1="820" x2="1150" y1="370" y2="370"/>
            <text xml:space="preserve" x="919" y="362" clip-path="url(#clipPath64)" stroke="none">game.getGameState()</text>
            <polygon clip-path="url(#clipPath65)" points=" 1150 370 1134 376 1134 364" stroke="none"/>
            <polygon fill="none" clip-path="url(#clipPath65)" points=" 1150 370 1134 376 1134 364"/>
            <line clip-path="url(#clipPath41)" fill="none" x1="1150" x2="820" y1="470" y2="470" stroke-dasharray="6.6,3.3"/>
            <text x="888" y="488" clip-path="url(#clipPath46)" stroke-dasharray="6.6,3.3" stroke="none" xml:space="preserve">returns gameState : GameState</text>
            <line clip-path="url(#clipPath47)" fill="none" x1="836" x2="820" y1="464" y2="470"/>
            <line clip-path="url(#clipPath47)" fill="none" x1="820" x2="836" y1="470" y2="476"/>
            <line clip-path="url(#clipPath41)" fill="none" x1="820" x2="1290" y1="530" y2="530"/>
            <text xml:space="preserve" x="943" y="522" clip-path="url(#clipPath54)" stroke="none">gameState.getPlayerState(side :Side)</text>
            <polygon clip-path="url(#clipPath55)" points=" 1290 530 1274 536 1274 524" stroke="none"/>
            <polygon fill="none" clip-path="url(#clipPath55)" points=" 1290 530 1274 536 1274 524"/>
            <line clip-path="url(#clipPath41)" fill="none" x1="1290" x2="820" y1="630" y2="630" stroke-dasharray="6.6,3.3"/>
            <text x="955" y="648" clip-path="url(#clipPath44)" stroke-dasharray="6.6,3.3" stroke="none" xml:space="preserve">returns playerState : playerState</text>
            <line clip-path="url(#clipPath45)" fill="none" x1="836" x2="820" y1="624" y2="630"/>
            <line clip-path="url(#clipPath45)" fill="none" x1="820" x2="836" y1="630" y2="636"/>
            <line clip-path="url(#clipPath41)" fill="none" x1="820" x2="1430" y1="690" y2="690"/>
            <text xml:space="preserve" x="1022" y="682" clip-path="url(#clipPath58)" stroke="none">playerState.getRemainingTimeAt()</text>
            <polygon clip-path="url(#clipPath59)" points=" 1430 690 1414 696 1414 684" stroke="none"/>
            <polygon fill="none" clip-path="url(#clipPath59)" points=" 1430 690 1414 696 1414 684"/>
            <line clip-path="url(#clipPath41)" fill="none" x1="1430" x2="820" y1="790" y2="790" stroke-dasharray="6.6,3.3"/>
            <text x="1043" y="808" clip-path="url(#clipPath60)" stroke-dasharray="6.6,3.3" stroke="none" xml:space="preserve">returns duration : Duration</text>
            <line clip-path="url(#clipPath61)" fill="none" x1="836" x2="820" y1="784" y2="790"/>
            <line clip-path="url(#clipPath61)" fill="none" x1="820" x2="836" y1="790" y2="796"/>
            <line clip-path="url(#clipPath41)" fill="none" x1="800" x2="530" y1="810" y2="810" stroke-dasharray="6.6,3.3"/>
            <text x="639" y="828" clip-path="url(#clipPath62)" stroke-dasharray="6.6,3.3" stroke="none" xml:space="preserve">duration</text>
            <line clip-path="url(#clipPath63)" fill="none" x1="546" x2="530" y1="804" y2="810"/>
            <line clip-path="url(#clipPath63)" fill="none" x1="530" x2="546" y1="810" y2="816"/>
            <line clip-path="url(#clipPath41)" fill="none" x1="340" x2="530" y1="150" y2="150"/>
            <text xml:space="preserve" x="380" y="142" clip-path="url(#clipPath68)" stroke="none">getRemainingTime</text>
            <line clip-path="url(#clipPath69)" fill="none" x1="514" x2="530" y1="156" y2="150"/>
            <line clip-path="url(#clipPath69)" fill="none" x1="530" x2="514" y1="150" y2="144"/>
            <line clip-path="url(#clipPath41)" fill="none" x1="330" x2="392" y1="830" y2="830"/>
            <line clip-path="url(#clipPath41)" fill="none" x1="392" x2="392" y1="830" y2="910"/>
            <line clip-path="url(#clipPath41)" fill="none" x1="392" x2="330" y1="910" y2="910"/>
            <text xml:space="preserve" x="396" y="875" clip-path="url(#clipPath42)" stroke="none">Parse(duration)</text>
            <polygon clip-path="url(#clipPath43)" points=" 330 910 346 904 346 916" stroke="none"/>
            <polygon fill="none" clip-path="url(#clipPath43)" points=" 330 910 346 904 346 916"/>
            <line clip-path="url(#clipPath41)" fill="none" x1="340" x2="120" y1="930" y2="930" stroke-dasharray="6.6,3.3"/>
            <text x="160" y="948" clip-path="url(#clipPath50)" stroke-dasharray="6.6,3.3" stroke="none" xml:space="preserve">returns remainingTime</text>
            <line clip-path="url(#clipPath51)" fill="none" x1="136" x2="120" y1="924" y2="930"/>
            <line clip-path="url(#clipPath51)" fill="none" x1="120" x2="136" y1="930" y2="936"/>
        </g>
    </g>
</svg>
