<?xml version="1.0" encoding="UTF-8" standalone="no"?>
<svg
   xmlns:dc="http://purl.org/dc/elements/1.1/"
   xmlns:cc="http://creativecommons.org/ns#"
   xmlns:rdf="http://www.w3.org/1999/02/22-rdf-syntax-ns#"
   xmlns:svg="http://www.w3.org/2000/svg"
   xmlns="http://www.w3.org/2000/svg"
   xmlns:sodipodi="http://sodipodi.sourceforge.net/DTD/sodipodi-0.dtd"
   xmlns:inkscape="http://www.inkscape.org/namespaces/inkscape"
   version="1.1"
   width="50"
   height="50"
   id="svg3025"
   inkscape:version="0.48.4 r9939"
   sodipodi:docname="Pb.svg">
  <metadata
     id="metadata3033">
    <rdf:RDF>
      <cc:Work
         rdf:about="">
        <dc:format>image/svg+xml</dc:format>
        <dc:type
           rdf:resource="http://purl.org/dc/dcmitype/StillImage" />
      </cc:Work>
    </rdf:RDF>
  </metadata>
  <defs
     id="defs3031" />
  <sodipodi:namedview
     pagecolor="#ffffff"
     bordercolor="#666666"
     borderopacity="1"
     objecttolerance="10"
     gridtolerance="10"
     guidetolerance="10"
     inkscape:pageopacity="0"
     inkscape:pageshadow="2"
     inkscape:window-width="892"
     inkscape:window-height="668"
     id="namedview3029"
     showgrid="false"
     inkscape:zoom="5.2444444"
     inkscape:cx="22.5"
     inkscape:cy="22.5"
     inkscape:window-x="0"
     inkscape:window-y="27"
     inkscape:window-maximized="0"
     inkscape:current-layer="svg3025" />
  <path
     d="m 25.743544,8.4271385 c -2.644567,0 -4.786547,2.1419795 -4.786547,4.7865465 0,1.065007 0.347025,2.046249 0.933377,2.847995 -2.333442,1.340233 -3.924968,3.841204 -3.924968,6.725098 0,2.429173 1.124838,4.595085 2.883894,6.019083 -3.58991,1.268435 -8.867077,6.641333 -8.867077,16.118695 l 27.522642,0 c 0,-9.477362 -5.277167,-14.85026 -8.867077,-16.118695 1.759056,-1.423998 2.883894,-3.58991 2.883894,-6.019083 0,-2.883894 -1.591527,-5.384865 -3.924968,-6.725098 0.586352,-0.801746 0.933377,-1.782988 0.933377,-2.847995 0,-2.644567 -2.14198,-4.7865465 -4.786547,-4.7865465 z"
     style="fill:#000000;fill-opacity:1;fill-rule:nonzero;stroke:#000000;stroke-width:1.79495502;stroke-linecap:round;stroke-linejoin:miter;stroke-miterlimit:4;stroke-opacity:1;stroke-dasharray:none"
     id="path3027"
     inkscape:connector-curvature="0" />
</svg>
