<?xml version="1.0" encoding="UTF-8" standalone="no"?>
<svg
   xmlns:dc="http://purl.org/dc/elements/1.1/"
   xmlns:cc="http://creativecommons.org/ns#"
   xmlns:rdf="http://www.w3.org/1999/02/22-rdf-syntax-ns#"
   xmlns:svg="http://www.w3.org/2000/svg"
   xmlns="http://www.w3.org/2000/svg"
   xmlns:sodipodi="http://sodipodi.sourceforge.net/DTD/sodipodi-0.dtd"
   xmlns:inkscape="http://www.inkscape.org/namespaces/inkscape"
   version="1.1"
   width="50"
   height="50"
   id="svg3015"
   inkscape:version="0.48.4 r9939"
   sodipodi:docname="Pw.svg">
  <metadata
     id="metadata3023">
    <rdf:RDF>
      <cc:Work
         rdf:about="">
        <dc:format>image/svg+xml</dc:format>
        <dc:type
           rdf:resource="http://purl.org/dc/dcmitype/StillImage" />
      </cc:Work>
    </rdf:RDF>
  </metadata>
  <defs
     id="defs3021" />
  <sodipodi:namedview
     pagecolor="#ffffff"
     bordercolor="#666666"
     borderopacity="1"
     objecttolerance="10"
     gridtolerance="10"
     guidetolerance="10"
     inkscape:pageopacity="0"
     inkscape:pageshadow="2"
     inkscape:window-width="896"
     inkscape:window-height="613"
     id="namedview3019"
     showgrid="false"
     inkscape:zoom="5.2444444"
     inkscape:cx="22.5"
     inkscape:cy="22.5"
     inkscape:window-x="0"
     inkscape:window-y="27"
     inkscape:window-maximized="0"
     inkscape:current-layer="svg3015" />
  <path
     d="m 25.062136,8.9634204 c -2.539218,0 -4.595869,2.0566516 -4.595869,4.5958686 0,1.022581 0.333201,1.964734 0.896194,2.734542 -2.240486,1.286843 -3.768612,3.688184 -3.768612,6.457195 0,2.332404 1.080029,4.412034 2.769011,5.779305 -3.446901,1.217905 -8.513846,6.376768 -8.513846,15.476588 l 26.426244,0 c 0,-9.09982 -5.066945,-14.258683 -8.513847,-15.476588 1.688982,-1.367271 2.769011,-3.446901 2.769011,-5.779305 0,-2.769011 -1.528126,-5.170352 -3.768612,-6.457195 0.562994,-0.769808 0.896194,-1.711961 0.896194,-2.734542 0,-2.539217 -2.056651,-4.5958686 -4.595868,-4.5958686 z"
     style="fill:#ffffff;fill-opacity:1;fill-rule:nonzero;stroke:#000000;stroke-width:1.72345078;stroke-linecap:round;stroke-linejoin:miter;stroke-miterlimit:4;stroke-opacity:1;stroke-dasharray:none"
     id="path3017"
     inkscape:connector-curvature="0" />
</svg>
