<?xml version="1.0" encoding="UTF-8" standalone="no"?>
<svg
   xmlns:dc="http://purl.org/dc/elements/1.1/"
   xmlns:cc="http://creativecommons.org/ns#"
   xmlns:rdf="http://www.w3.org/1999/02/22-rdf-syntax-ns#"
   xmlns:svg="http://www.w3.org/2000/svg"
   xmlns="http://www.w3.org/2000/svg"
   xmlns:sodipodi="http://sodipodi.sourceforge.net/DTD/sodipodi-0.dtd"
   xmlns:inkscape="http://www.inkscape.org/namespaces/inkscape"
   version="1.1"
   width="50"
   height="50"
   id="svg2"
   inkscape:version="0.48.4 r9939"
   sodipodi:docname="Qb.svg">
  <metadata
     id="metadata36">
    <rdf:RDF>
      <cc:Work
         rdf:about="">
        <dc:format>image/svg+xml</dc:format>
        <dc:type
           rdf:resource="http://purl.org/dc/dcmitype/StillImage" />
      </cc:Work>
    </rdf:RDF>
  </metadata>
  <defs
     id="defs34" />
  <sodipodi:namedview
     pagecolor="#ffffff"
     bordercolor="#666666"
     borderopacity="1"
     objecttolerance="10"
     gridtolerance="10"
     guidetolerance="10"
     inkscape:pageopacity="0"
     inkscape:pageshadow="2"
     inkscape:window-width="937"
     inkscape:window-height="723"
     id="namedview32"
     showgrid="false"
     inkscape:zoom="5.2444444"
     inkscape:cx="22.5"
     inkscape:cy="22.5"
     inkscape:window-x="0"
     inkscape:window-y="27"
     inkscape:window-maximized="0"
     inkscape:current-layer="svg2" />
  <g
     style="fill-opacity:1;fill-rule:evenodd;stroke:#000000;stroke-width:1.5;stroke-linecap:round;stroke-linejoin:round;stroke-miterlimit:4;stroke-opacity:1;stroke-dasharray:none"
     id="g4"
     transform="matrix(1.2377284,0,0,1.2377284,-2.6793969,-3.7819723)">
    <g
       style="fill:#000000;stroke:none"
       id="g6">
      <circle
         cx="6"
         cy="12"
         r="2.75"
         id="circle8"
         sodipodi:cx="6"
         sodipodi:cy="12"
         sodipodi:rx="2.75"
         sodipodi:ry="2.75"
         d="M 8.75,12 C 8.75,13.518783 7.5187831,14.75 6,14.75 4.4812169,14.75 3.25,13.518783 3.25,12 3.25,10.481217 4.4812169,9.25 6,9.25 c 1.5187831,0 2.75,1.231217 2.75,2.75 z" />
      <circle
         cx="14"
         cy="9"
         r="2.75"
         id="circle10"
         sodipodi:cx="14"
         sodipodi:cy="9"
         sodipodi:rx="2.75"
         sodipodi:ry="2.75"
         d="m 16.75,9 c 0,1.518783 -1.231217,2.75 -2.75,2.75 -1.518783,0 -2.75,-1.231217 -2.75,-2.75 0,-1.5187831 1.231217,-2.75 2.75,-2.75 1.518783,0 2.75,1.2312169 2.75,2.75 z" />
      <circle
         cx="22.5"
         cy="8"
         r="2.75"
         id="circle12"
         sodipodi:cx="22.5"
         sodipodi:cy="8"
         sodipodi:rx="2.75"
         sodipodi:ry="2.75"
         d="m 25.25,8 c 0,1.5187831 -1.231217,2.75 -2.75,2.75 -1.518783,0 -2.75,-1.2312169 -2.75,-2.75 0,-1.5187831 1.231217,-2.75 2.75,-2.75 1.518783,0 2.75,1.2312169 2.75,2.75 z" />
      <circle
         cx="31"
         cy="9"
         r="2.75"
         id="circle14"
         sodipodi:cx="31"
         sodipodi:cy="9"
         sodipodi:rx="2.75"
         sodipodi:ry="2.75"
         d="m 33.75,9 c 0,1.518783 -1.231217,2.75 -2.75,2.75 -1.518783,0 -2.75,-1.231217 -2.75,-2.75 0,-1.5187831 1.231217,-2.75 2.75,-2.75 1.518783,0 2.75,1.2312169 2.75,2.75 z" />
      <circle
         cx="39"
         cy="12"
         r="2.75"
         id="circle16"
         sodipodi:cx="39"
         sodipodi:cy="12"
         sodipodi:rx="2.75"
         sodipodi:ry="2.75"
         d="m 41.75,12 c 0,1.518783 -1.231217,2.75 -2.75,2.75 -1.518783,0 -2.75,-1.231217 -2.75,-2.75 0,-1.518783 1.231217,-2.75 2.75,-2.75 1.518783,0 2.75,1.231217 2.75,2.75 z" />
    </g>
    <path
       d="m 9,26 c 8.5,-1.5 21,-1.5 27,0 L 38.5,13.5 31,25 30.7,10.9 25.5,24.5 22.5,10 19.5,24.5 14.3,10.9 14,25 6.5,13.5 9,26 z"
       style="stroke:#000000;stroke-linecap:butt"
       id="path18"
       inkscape:connector-curvature="0" />
    <path
       d="m 9,26 c 0,2 1.5,2 2.5,4 1,1.5 1,1 0.5,3.5 -1.5,1 -1.5,2.5 -1.5,2.5 -1.5,1.5 0.5,2.5 0.5,2.5 6.5,1 16.5,1 23,0 0,0 1.5,-1 0,-2.5 0,0 0.5,-1.5 -1,-2.5 -0.5,-2.5 -0.5,-2 0.5,-3.5 1,-2 2.5,-2 2.5,-4 -8.5,-1.5 -18.5,-1.5 -27,0 z"
       style="stroke-linecap:butt"
       id="path20"
       inkscape:connector-curvature="0" />
    <path
       d="m 11,38.5 a 35,35 1 0 0 23,0"
       style="fill:none;stroke:#000000;stroke-linecap:butt"
       id="path22"
       inkscape:connector-curvature="0" />
    <path
       d="m 11,29 a 35,35 1 0 1 23,0"
       style="fill:none;stroke:#ffffff"
       id="path24"
       inkscape:connector-curvature="0" />
    <path
       d="m 12.5,31.5 20,0"
       style="fill:none;stroke:#ffffff"
       id="path26"
       inkscape:connector-curvature="0" />
    <path
       d="m 11.5,34.5 a 35,35 1 0 0 22,0"
       style="fill:none;stroke:#ffffff"
       id="path28"
       inkscape:connector-curvature="0" />
    <path
       d="m 10.5,37.5 a 35,35 1 0 0 24,0"
       style="fill:none;stroke:#ffffff"
       id="path30"
       inkscape:connector-curvature="0" />
  </g>
</svg>
