<?xml version="1.0" encoding="UTF-8" standalone="no"?>
<svg
   xmlns:dc="http://purl.org/dc/elements/1.1/"
   xmlns:cc="http://creativecommons.org/ns#"
   xmlns:rdf="http://www.w3.org/1999/02/22-rdf-syntax-ns#"
   xmlns:svg="http://www.w3.org/2000/svg"
   xmlns="http://www.w3.org/2000/svg"
   xmlns:sodipodi="http://sodipodi.sourceforge.net/DTD/sodipodi-0.dtd"
   xmlns:inkscape="http://www.inkscape.org/namespaces/inkscape"
   version="1.1"
   width="210px"
   height="210px"
   id="svg2"
   inkscape:version="0.48.4 r9939"
   sodipodi:docname="DKw.svg">
  <metadata
     id="metadata21">
    <rdf:RDF>
      <cc:Work
         rdf:about="">
        <dc:format>image/svg+xml</dc:format>
        <dc:type
           rdf:resource="http://purl.org/dc/dcmitype/StillImage" />
        <dc:title />
      </cc:Work>
    </rdf:RDF>
  </metadata>
  <sodipodi:namedview
     pagecolor="#ffffff"
     bordercolor="#666666"
     borderopacity="1"
     objecttolerance="10"
     gridtolerance="10"
     guidetolerance="10"
     inkscape:pageopacity="0"
     inkscape:pageshadow="2"
     inkscape:window-width="1280"
     inkscape:window-height="839"
     id="namedview19"
     showgrid="false"
     inkscape:zoom="3.1786133"
     inkscape:cx="81.764924"
     inkscape:cy="106.33129"
     inkscape:window-x="0"
     inkscape:window-y="27"
     inkscape:window-maximized="0"
     inkscape:current-layer="g4" />
  <defs
     id="defs4">
    <linearGradient
       id="lg">
      <stop
         style="stop-color: #7f7f7f; stop-opacity: 1;"
         offset="0"
         id="stop7" />
      <stop
         style="stop-color: #ffffff; stop-opacity: 1;"
         offset="0.5"
         id="stop9" />
      <stop
         style="stop-color: #ffffff; stop-opacity: 1;"
         offset="1"
         id="stop11" />
    </linearGradient>
  </defs>
  <path
     sodipodi:type="arc"
     style="stroke:#2f3444;stroke-opacity:1;fill:#ffffff;fill-opacity:1;stroke-width:5.99396198999999985;stroke-miterlimit:4;stroke-dasharray:none"
     id="path2987"
     sodipodi:cx="150.38136"
     sodipodi:cy="146.82204"
     sodipodi:rx="98.771187"
     sodipodi:ry="98.771187"
     d="m 249.15255,146.82204 a 98.771187,98.771187 0 1 1 -197.542374,0 98.771187,98.771187 0 1 1 197.542374,0 z"
     transform="matrix(0.83417279,0,0,0.83417279,-19.999118,-22.369012)" />
  <g
     transform="matrix(2.3193904,0,0,2.2189133,53.258639,50.457751)"
     style="fill:#000000;fill-opacity:1;fill-rule:evenodd;stroke:#44424b;stroke-width:1.50000000000000000;stroke-linecap:round;stroke-linejoin:round;stroke-miterlimit:4;stroke-opacity:1;stroke-dasharray:none"
     id="g4">
    <path
       inkscape:connector-curvature="0"
       d="m 9,13 a 2,2 0 1 1 -4,0 2,2 0 1 1 4,0 z"
       transform="translate(-1,-1)"
       id="path6"
       style="stroke:#000000;stroke-opacity:1;fill:#000000;fill-opacity:1" />
    <path
       inkscape:connector-curvature="0"
       d="m 9,13 a 2,2 0 1 1 -4,0 2,2 0 1 1 4,0 z"
       transform="translate(15.5,-5.5)"
       id="path8"
       style="stroke:#000000;stroke-opacity:1;fill:#000000;fill-opacity:1" />
    <path
       inkscape:connector-curvature="0"
       d="m 9,13 a 2,2 0 1 1 -4,0 2,2 0 1 1 4,0 z"
       transform="translate(32,-1)"
       id="path10"
       style="stroke:#000000;stroke-opacity:1;fill:#000000;fill-opacity:1" />
    <path
       inkscape:connector-curvature="0"
       d="m 9,26 c 8.5,-1.5 21,-1.5 27,0 l 2,-12 -7,11 c -0.804691,0.202643 -1.304758,-0.338961 -5.5,-0.5 l -3,-15 -3,15 c 0,0 -2.922836,0.324536 -5.5,0.5 L 7.1356402,14.567129 z"
       style="fill:#000000;fill-opacity:1;stroke:#000000;stroke-linecap:butt;stroke-opacity:1"
       id="path16"
       sodipodi:nodetypes="cccccccccc" />
    <path
       inkscape:connector-curvature="0"
       d="m 9,26 c 0,2 0.143598,3.984952 1.143598,5.984952 0,0 19.046128,0.172834 25.119725,0 C 36.263323,29.984952 36,28 36,26 27.5,24.5 17.5,24.5 9,26 z"
       style="fill:#000000;fill-opacity:1;stroke:#000000;stroke-linecap:butt;stroke-opacity:1"
       id="path18"
       sodipodi:nodetypes="ccccc" />
  </g>
</svg>
